<?xml version="1.0" encoding="iso-8859-1"?>
<!-- Generator: Adobe Illustrator 17.1.0, SVG Export Plug-In . SVG Version: 6.00 Build 0)  -->
<!DOCTYPE svg PUBLIC "-//W3C//DTD SVG 1.1//EN" "http://www.w3.org/Graphics/SVG/1.1/DTD/svg11.dtd">
<svg version="1.1" id="Capa_1" xmlns="http://www.w3.org/2000/svg" xmlns:xlink="http://www.w3.org/1999/xlink" x="0px" y="0px"
	 viewBox="0 0 196.284 196.284" style="enable-background:new 0 0 196.284 196.284;" xml:space="preserve">
<path d="M176.643,196.284h-157c-1.657,0-3-1.343-3-3v-120.5h-3.377c-1.657,0-3-1.343-3-3V42.528c0-1.657,1.343-3,3-3h58.769
	l-25.029-5.829c-4.622-1.077-8.618-4.06-10.965-8.185c-2.347-4.125-2.868-9.084-1.432-13.606C36.872,4.785,43.428,0,50.924,0
	c4.355,0,8.511,1.667,11.701,4.693l22.313,21.171c1.412-3.569,4.898-6.101,8.964-6.101h8.48c4.065,0,7.551,2.532,8.964,6.101
	L133.66,4.693C136.85,1.667,141.006,0,145.361,0c7.496,0,14.052,4.786,16.314,11.908c1.437,4.522,0.915,9.482-1.432,13.606
	c-2.347,4.125-6.343,7.108-10.965,8.185l-25.029,5.829h58.769c1.657,0,3,1.343,3,3v27.256c0,1.657-1.343,3-3,3h-3.376v120.5
	C179.643,194.941,178.3,196.284,176.643,196.284z M116.393,190.284h57.25v-117.5h-57.25V190.284z M85.893,190.284h24.5v-117.5h-24.5
	V190.284z M22.643,190.284h57.25v-117.5h-57.25V190.284z M176.643,66.784h3.376V45.528h-63.626v21.256H176.643z M85.893,66.784h24.5
	V45.528h-24.5V66.784z M19.643,66.784h60.25V45.528H16.266v21.256H19.643z M93.902,39.528h8.48c0.967,0,1.866-0.37,2.55-1.044
	c0.033-0.04,0.068-0.079,0.104-0.118c0.625-0.671,0.974-1.539,0.98-2.444c0,0,0-0.001,0-0.001c0-0.002,0-0.003,0-0.004v-6.518
	c0-2.004-1.631-3.635-3.635-3.635h-8.48c-2.004,0-3.635,1.63-3.635,3.635v6.495c0.007,0.934,0.354,1.802,0.979,2.473
	c0.035,0.038,0.069,0.076,0.102,0.114C92.032,39.158,92.934,39.528,93.902,39.528z M112.018,33.499v2.395
	c-0.001,0.108-0.003,0.217-0.007,0.325l35.907-8.363c3.042-0.708,5.566-2.593,7.111-5.308c1.544-2.714,1.873-5.847,0.928-8.823
	C154.489,9.104,150.231,6,145.361,6c-2.813,0-5.502,1.082-7.572,3.046L112.018,33.499z M50.924,6c-4.87,0-9.129,3.104-10.597,7.725
	c-0.945,2.976-0.616,6.109,0.928,8.823c1.545,2.714,4.069,4.6,7.111,5.308l35.907,8.363c-0.003-0.073-0.005-0.146-0.005-0.22
	c0,0,0-0.001,0-0.002v-0.001c-0.001-0.009-0.001-0.018-0.001-0.027v-2.469L58.495,9.046C56.425,7.082,53.736,6,50.924,6z"/>
<g>
</g>
<g>
</g>
<g>
</g>
<g>
</g>
<g>
</g>
<g>
</g>
<g>
</g>
<g>
</g>
<g>
</g>
<g>
</g>
<g>
</g>
<g>
</g>
<g>
</g>
<g>
</g>
<g>
</g>
</svg>
