<svg xmlns="http://www.w3.org/2000/svg" viewBox="0 0 448 448"><defs><style>.cls-1{fill:#4b789f;}</style></defs><title>Ресурс 13</title><g id="Слой_2" data-name="Слой 2"><g id="Слой_1-2" data-name="Слой 1"><path class="cls-1" d="M400,448H48A48,48,0,0,1,0,400V48A48,48,0,0,1,48,0H400a48,48,0,0,1,48,48V400A48,48,0,0,1,400,448ZM195.31,349.94l184-184a16,16,0,0,0,0-22.63l-22.63-22.63a16,16,0,0,0-22.63,0L184,270.74l-70.06-70.06a16,16,0,0,0-22.63,0L68.69,223.31a16,16,0,0,0,0,22.63l104,104a16,16,0,0,0,22.63,0Z"/></g></g></svg>