<svg width="180" height="114" viewBox="0 0 180 114" fill="none" xmlns="http://www.w3.org/2000/svg">
<circle cx="8.5" cy="8.5" r="13" transform="translate(31 88)" stroke="#4B789F" stroke-width="9"/>
<circle cx="8.5" cy="8.5" r="13" transform="translate(138 88)" stroke="#4B789F" stroke-width="9"/>
<path fill-rule="evenodd" clip-rule="evenodd" d="M7 77.0104V0.0104287H113.5C116.167 -0.156258 121.5 1.6104 121.5 10.0104V90.0104H62C60.1667 84.1771 52.9 72.5104 38.5 72.5104C24.1 72.5104 17.1667 84.1771 15.5 90.0104H5.5C3.66666 89.5104 0 87.5104 0 83.5104C0 79.5104 4.66666 77.5104 7 77.0104ZM128.5 26.5104H158C159.167 26.3438 162.3 26.8104 165.5 30.0104C168.7 33.2104 173.5 42.3438 175.5 46.5104C176.833 48.5104 179.5 53.9104 179.5 59.5104V91.0104H169C167.5 84.8438 161.1 72.5104 147.5 72.5104C133.9 72.5104 129.167 77.5104 128.5 80.0104V26.5104ZM138.5 32.5104H156.5C160 32.5104 163.5 38.0104 163.5 38.0104L170 49.5104H138.5V32.5104Z" transform="translate(0.5 0.489563)" fill="#4B789F"/>
<path d="M14.4531 22.4961H11.748V19H3.17383V22.4863H0.400391L0.244141 16.6465H1.31836C1.89779 16.1647 2.34375 15.4583 2.65625 14.5273C2.97526 13.5898 3.1901 12.431 3.30078 11.0508L3.71094 4.78125H13.0273V16.6465H14.6875L14.4531 22.4961ZM4.67773 16.6465H10.0977V7.1543H6.49414L6.25 10.8945C6.05469 13.401 5.5306 15.3184 4.67773 16.6465ZM15.6055 13.6191C15.6055 12.571 15.8073 11.6367 16.2109 10.8164C16.6146 9.99609 17.194 9.36133 17.9492 8.91211C18.7109 8.46289 19.5931 8.23828 20.5957 8.23828C22.0215 8.23828 23.1836 8.67448 24.082 9.54688C24.987 10.4193 25.4915 11.6042 25.5957 13.1016L25.6152 13.8242C25.6152 15.4453 25.1628 16.7474 24.2578 17.7305C23.3529 18.707 22.1387 19.1953 20.6152 19.1953C19.0918 19.1953 17.8743 18.707 16.9629 17.7305C16.0579 16.7539 15.6055 15.4258 15.6055 13.7461V13.6191ZM18.4277 13.8242C18.4277 14.8268 18.6165 15.5951 18.9941 16.1289C19.3717 16.6562 19.9121 16.9199 20.6152 16.9199C21.2988 16.9199 21.8327 16.6595 22.2168 16.1387C22.6009 15.6113 22.793 14.7715 22.793 13.6191C22.793 12.6361 22.6009 11.8743 22.2168 11.334C21.8327 10.7936 21.2923 10.5234 20.5957 10.5234C19.9056 10.5234 19.3717 10.7936 18.9941 11.334C18.6165 11.8678 18.4277 12.6979 18.4277 13.8242ZM31.748 16.9199C32.2689 16.9199 32.6921 16.7767 33.0176 16.4902C33.3431 16.2038 33.5124 15.8229 33.5254 15.3477H36.1719C36.1654 16.0638 35.9701 16.7214 35.5859 17.3203C35.2018 17.9128 34.6745 18.375 34.0039 18.707C33.3398 19.0326 32.6042 19.1953 31.7969 19.1953C30.2865 19.1953 29.0951 18.7168 28.2227 17.7598C27.3503 16.7962 26.9141 15.4681 26.9141 13.7754V13.5898C26.9141 11.9622 27.347 10.6634 28.2129 9.69336C29.0788 8.72331 30.2669 8.23828 31.7773 8.23828C33.099 8.23828 34.1569 8.61589 34.9512 9.37109C35.752 10.1198 36.1589 11.1191 36.1719 12.3691H33.5254C33.5124 11.8223 33.3431 11.3796 33.0176 11.041C32.6921 10.696 32.2624 10.5234 31.7285 10.5234C31.071 10.5234 30.5729 10.7643 30.2344 11.2461C29.9023 11.7214 29.7363 12.4961 29.7363 13.5703V13.8633C29.7363 14.9505 29.9023 15.7318 30.2344 16.207C30.5664 16.6823 31.071 16.9199 31.748 16.9199ZM46.5527 10.6992H43.1641V19H40.332V10.6992H37.002V8.43359H46.5527V10.6992ZM53.9453 19C53.8151 18.7461 53.7207 18.4303 53.6621 18.0527C52.9785 18.8145 52.0898 19.1953 50.9961 19.1953C49.9609 19.1953 49.1016 18.8958 48.418 18.2969C47.7409 17.6979 47.4023 16.9427 47.4023 16.0312C47.4023 14.9115 47.8158 14.0521 48.6426 13.4531C49.4759 12.8542 50.6771 12.5514 52.2461 12.5449H53.5449V11.9395C53.5449 11.4512 53.418 11.0605 53.1641 10.7676C52.9167 10.4746 52.5228 10.3281 51.9824 10.3281C51.5072 10.3281 51.1328 10.4421 50.8594 10.6699C50.5924 10.8978 50.459 11.2103 50.459 11.6074H47.6367C47.6367 10.9954 47.8255 10.429 48.2031 9.9082C48.5807 9.38737 49.1146 8.98047 49.8047 8.6875C50.4948 8.38802 51.2695 8.23828 52.1289 8.23828C53.431 8.23828 54.4629 8.56706 55.2246 9.22461C55.9928 9.87565 56.377 10.7936 56.377 11.9785V16.5586C56.3835 17.5612 56.5234 18.3197 56.7969 18.834V19H53.9453ZM51.6113 17.0371C52.028 17.0371 52.4121 16.946 52.7637 16.7637C53.1152 16.5749 53.3757 16.3242 53.5449 16.0117V14.1953H52.4902C51.0775 14.1953 50.3255 14.6836 50.2344 15.6602L50.2246 15.8262C50.2246 16.1777 50.3483 16.4674 50.5957 16.6953C50.8431 16.9232 51.1816 17.0371 51.6113 17.0371ZM58.7305 19V8.43359H63.1445C64.5833 8.43359 65.6868 8.6875 66.4551 9.19531C67.2233 9.70312 67.6074 10.4323 67.6074 11.3828C67.6074 11.8711 67.4447 12.3105 67.1191 12.7012C66.8001 13.0853 66.3314 13.3815 65.7129 13.5898C66.4681 13.7331 67.0605 14.0163 67.4902 14.4395C67.9264 14.8561 68.1445 15.3704 68.1445 15.9824C68.1445 16.9655 67.7734 17.7142 67.0312 18.2285C66.2956 18.7428 65.2246 19 63.8184 19H58.7305ZM61.5527 14.6152V16.7441H63.8281C64.8242 16.7441 65.3223 16.3958 65.3223 15.6992C65.3223 14.9896 64.847 14.6283 63.8965 14.6152H61.5527ZM61.5527 12.7207H63.3008C64.2904 12.7077 64.7852 12.3887 64.7852 11.7637C64.7852 11.3796 64.6484 11.1061 64.375 10.9434C64.1081 10.7806 63.6979 10.6992 63.1445 10.6992H61.5527V12.7207ZM74.0137 15.1035H72.8809V19H70.0586V8.43359H72.8809V12.4082H73.8867L76.1914 8.43359H79.7559L76.2988 13.4629L80.0781 19H76.3184L74.0137 15.1035ZM87.2656 19C87.1354 18.7461 87.041 18.4303 86.9824 18.0527C86.2988 18.8145 85.4102 19.1953 84.3164 19.1953C83.2812 19.1953 82.4219 18.8958 81.7383 18.2969C81.0612 17.6979 80.7227 16.9427 80.7227 16.0312C80.7227 14.9115 81.1361 14.0521 81.9629 13.4531C82.7962 12.8542 83.9974 12.5514 85.5664 12.5449H86.8652V11.9395C86.8652 11.4512 86.7383 11.0605 86.4844 10.7676C86.237 10.4746 85.8431 10.3281 85.3027 10.3281C84.8275 10.3281 84.4531 10.4421 84.1797 10.6699C83.9128 10.8978 83.7793 11.2103 83.7793 11.6074H80.957C80.957 10.9954 81.1458 10.429 81.5234 9.9082C81.901 9.38737 82.4349 8.98047 83.125 8.6875C83.8151 8.38802 84.5898 8.23828 85.4492 8.23828C86.7513 8.23828 87.7832 8.56706 88.5449 9.22461C89.3132 9.87565 89.6973 10.7936 89.6973 11.9785V16.5586C89.7038 17.5612 89.8438 18.3197 90.1172 18.834V19H87.2656ZM84.9316 17.0371C85.3483 17.0371 85.7324 16.946 86.084 16.7637C86.4355 16.5749 86.696 16.3242 86.8652 16.0117V14.1953H85.8105C84.3978 14.1953 83.6458 14.6836 83.5547 15.6602L83.5449 15.8262C83.5449 16.1777 83.6686 16.4674 83.916 16.6953C84.1634 16.9232 84.502 17.0371 84.9316 17.0371ZM10.2734 42H7.44141V33.7188H3.90625V42H1.08398V31.4336H10.2734V42ZM11.9922 36.6191C11.9922 35.571 12.194 34.6367 12.5977 33.8164C13.0013 32.9961 13.5807 32.3613 14.3359 31.9121C15.0977 31.4629 15.9798 31.2383 16.9824 31.2383C18.4082 31.2383 19.5703 31.6745 20.4688 32.5469C21.3737 33.4193 21.8783 34.6042 21.9824 36.1016L22.002 36.8242C22.002 38.4453 21.5495 39.7474 20.6445 40.7305C19.7396 41.707 18.5254 42.1953 17.002 42.1953C15.4785 42.1953 14.2611 41.707 13.3496 40.7305C12.4447 39.7539 11.9922 38.4258 11.9922 36.7461V36.6191ZM14.8145 36.8242C14.8145 37.8268 15.0033 38.5951 15.3809 39.1289C15.7585 39.6562 16.2988 39.9199 17.002 39.9199C17.6855 39.9199 18.2194 39.6595 18.6035 39.1387C18.9876 38.6113 19.1797 37.7715 19.1797 36.6191C19.1797 35.6361 18.9876 34.8743 18.6035 34.334C18.2194 33.7936 17.679 33.5234 16.9824 33.5234C16.2923 33.5234 15.7585 33.7936 15.3809 34.334C15.0033 34.8678 14.8145 35.6979 14.8145 36.8242ZM31.8359 36.9902V42H28.9062V27.7812H34.4531C35.5208 27.7812 36.4583 27.9766 37.2656 28.3672C38.0794 28.7578 38.7044 29.3145 39.1406 30.0371C39.5768 30.7533 39.7949 31.5703 39.7949 32.4883C39.7949 33.8815 39.3164 34.9818 38.3594 35.7891C37.4089 36.5898 36.0905 36.9902 34.4043 36.9902H31.8359ZM31.8359 34.6172H34.4531C35.2279 34.6172 35.8171 34.4349 36.2207 34.0703C36.6309 33.7057 36.8359 33.1849 36.8359 32.5078C36.8359 31.8112 36.6309 31.248 36.2207 30.8184C35.8105 30.3887 35.2441 30.1673 34.5215 30.1543H31.8359V34.6172ZM41.0547 36.6191C41.0547 35.571 41.2565 34.6367 41.6602 33.8164C42.0638 32.9961 42.6432 32.3613 43.3984 31.9121C44.1602 31.4629 45.0423 31.2383 46.0449 31.2383C47.4707 31.2383 48.6328 31.6745 49.5312 32.5469C50.4362 33.4193 50.9408 34.6042 51.0449 36.1016L51.0645 36.8242C51.0645 38.4453 50.612 39.7474 49.707 40.7305C48.8021 41.707 47.5879 42.1953 46.0645 42.1953C44.541 42.1953 43.3236 41.707 42.4121 40.7305C41.5072 39.7539 41.0547 38.4258 41.0547 36.7461V36.6191ZM43.877 36.8242C43.877 37.8268 44.0658 38.5951 44.4434 39.1289C44.821 39.6562 45.3613 39.9199 46.0645 39.9199C46.748 39.9199 47.2819 39.6595 47.666 39.1387C48.0501 38.6113 48.2422 37.7715 48.2422 36.6191C48.2422 35.6361 48.0501 34.8743 47.666 34.334C47.2819 33.7936 46.7415 33.5234 46.0449 33.5234C45.3548 33.5234 44.821 33.7936 44.4434 34.334C44.0658 34.8678 43.877 35.6979 43.877 36.8242ZM57.1973 39.9199C57.7181 39.9199 58.1413 39.7767 58.4668 39.4902C58.7923 39.2038 58.9616 38.8229 58.9746 38.3477H61.6211C61.6146 39.0638 61.4193 39.7214 61.0352 40.3203C60.651 40.9128 60.1237 41.375 59.4531 41.707C58.7891 42.0326 58.0534 42.1953 57.2461 42.1953C55.7357 42.1953 54.5443 41.7168 53.6719 40.7598C52.7995 39.7962 52.3633 38.4681 52.3633 36.7754V36.5898C52.3633 34.9622 52.7962 33.6634 53.6621 32.6934C54.528 31.7233 55.7161 31.2383 57.2266 31.2383C58.5482 31.2383 59.6061 31.6159 60.4004 32.3711C61.2012 33.1198 61.6081 34.1191 61.6211 35.3691H58.9746C58.9616 34.8223 58.7923 34.3796 58.4668 34.041C58.1413 33.696 57.7116 33.5234 57.1777 33.5234C56.5202 33.5234 56.0221 33.7643 55.6836 34.2461C55.3516 34.7214 55.1855 35.4961 55.1855 36.5703V36.8633C55.1855 37.9505 55.3516 38.7318 55.6836 39.207C56.0156 39.6823 56.5202 39.9199 57.1973 39.9199ZM67.627 39.9199C68.1478 39.9199 68.571 39.7767 68.8965 39.4902C69.222 39.2038 69.3913 38.8229 69.4043 38.3477H72.0508C72.0443 39.0638 71.849 39.7214 71.4648 40.3203C71.0807 40.9128 70.5534 41.375 69.8828 41.707C69.2188 42.0326 68.4831 42.1953 67.6758 42.1953C66.1654 42.1953 64.974 41.7168 64.1016 40.7598C63.2292 39.7962 62.793 38.4681 62.793 36.7754V36.5898C62.793 34.9622 63.2259 33.6634 64.0918 32.6934C64.9577 31.7233 66.1458 31.2383 67.6562 31.2383C68.9779 31.2383 70.0358 31.6159 70.8301 32.3711C71.6309 33.1198 72.0378 34.1191 72.0508 35.3691H69.4043C69.3913 34.8223 69.222 34.3796 68.8965 34.041C68.571 33.696 68.1413 33.5234 67.6074 33.5234C66.9499 33.5234 66.4518 33.7643 66.1133 34.2461C65.7812 34.7214 65.6152 35.4961 65.6152 36.5703V36.8633C65.6152 37.9505 65.7812 38.7318 66.1133 39.207C66.4453 39.6823 66.9499 39.9199 67.627 39.9199ZM80.0293 31.4336H82.8516V42H80.0293V35.4766L76.4941 42H73.6621V31.4336H76.4941V37.9473L80.0293 31.4336ZM91.377 31.4336H94.1992V42H91.377V35.4766L87.8418 42H85.0098V31.4336H87.8418V37.9473L91.377 31.4336Z" transform="translate(17 14)" fill="white"/>
</svg>
