<svg width="180" height="114" viewBox="0 0 180 114" fill="none" xmlns="http://www.w3.org/2000/svg">
<circle cx="8.5" cy="8.5" r="13" transform="translate(30.5 88)" stroke="#4B789F" stroke-width="9"/>
<circle cx="8.5" cy="8.5" r="13" transform="translate(137.5 88)" stroke="#4B789F" stroke-width="9"/>
<path fill-rule="evenodd" clip-rule="evenodd" d="M7 77.0104V0.0104287H113.5C116.167 -0.156258 121.5 1.6104 121.5 10.0104V90.0104H62C60.1667 84.1771 52.9 72.5104 38.5 72.5104C24.1 72.5104 17.1667 84.1771 15.5 90.0104H5.5C3.66666 89.5104 0 87.5104 0 83.5104C0 79.5104 4.66666 77.5104 7 77.0104ZM128.5 26.5104H158C159.167 26.3438 162.3 26.8104 165.5 30.0104C168.7 33.2104 173.5 42.3438 175.5 46.5104C176.833 48.5104 179.5 53.9104 179.5 59.5104V91.0104H169C167.5 84.8438 161.1 72.5104 147.5 72.5104C133.9 72.5104 129.167 77.5104 128.5 80.0104V26.5104ZM138.5 32.5104H156.5C160 32.5104 163.5 38.0104 163.5 38.0104L170 49.5104H138.5V32.5104Z" transform="translate(0 0.489563)" fill="#4B789F"/>
<path d="M14.4531 22.4961H11.748V19H3.17383V22.4863H0.400391L0.244141 16.6465H1.31836C1.89779 16.1647 2.34375 15.4583 2.65625 14.5273C2.97526 13.5898 3.1901 12.431 3.30078 11.0508L3.71094 4.78125H13.0273V16.6465H14.6875L14.4531 22.4961ZM4.67773 16.6465H10.0977V7.1543H6.49414L6.25 10.8945C6.05469 13.401 5.5306 15.3184 4.67773 16.6465ZM25.5566 13.8145C25.5566 15.4421 25.1855 16.7474 24.4434 17.7305C23.7077 18.707 22.7116 19.1953 21.4551 19.1953C20.3874 19.1953 19.5247 18.8242 18.8672 18.082V23.0625H16.0449V8.43359H18.6621L18.7598 9.46875C19.4434 8.64844 20.3353 8.23828 21.4355 8.23828C22.7376 8.23828 23.75 8.72005 24.4727 9.68359C25.1953 10.6471 25.5566 11.9753 25.5566 13.668V13.8145ZM22.7344 13.6094C22.7344 12.6263 22.5586 11.8678 22.207 11.334C21.862 10.8001 21.3574 10.5332 20.6934 10.5332C19.8079 10.5332 19.1992 10.8717 18.8672 11.5488V15.875C19.2122 16.5716 19.8275 16.9199 20.7129 16.9199C22.0605 16.9199 22.7344 15.8164 22.7344 13.6094ZM31.1426 15.0059L33.0957 8.43359H36.123L31.875 20.6406L31.6406 21.1973C31.0091 22.5775 29.9674 23.2676 28.5156 23.2676C28.1055 23.2676 27.6888 23.2057 27.2656 23.082V20.9434L27.6953 20.9531C28.2292 20.9531 28.6263 20.8717 28.8867 20.709C29.1536 20.5462 29.362 20.276 29.5117 19.8984L29.8438 19.0293L26.1426 8.43359H29.1797L31.1426 15.0059ZM44.4336 10.7188H40.0586V19H37.2363V8.43359H44.4336V10.7188ZM51.9824 8.43359H54.8047V19H51.9824V12.4766L48.4473 19H45.6152V8.43359H48.4473V14.9473L51.9824 8.43359ZM61.8262 19.1953C60.2767 19.1953 59.0137 18.7201 58.0371 17.7695C57.0671 16.819 56.582 15.5527 56.582 13.9707V13.6973C56.582 12.6361 56.7871 11.6888 57.1973 10.8555C57.6074 10.0156 58.1868 9.37109 58.9355 8.92188C59.6908 8.46615 60.5501 8.23828 61.5137 8.23828C62.959 8.23828 64.0951 8.69401 64.9219 9.60547C65.7552 10.5169 66.1719 11.8092 66.1719 13.4824V14.6348H59.4434C59.5345 15.3249 59.8079 15.8783 60.2637 16.2949C60.7259 16.7116 61.3086 16.9199 62.0117 16.9199C63.099 16.9199 63.9486 16.526 64.5605 15.7383L65.9473 17.291C65.5241 17.89 64.9512 18.3587 64.2285 18.6973C63.5059 19.0293 62.7051 19.1953 61.8262 19.1953ZM61.5039 10.5234C60.944 10.5234 60.4883 10.7122 60.1367 11.0898C59.7917 11.4674 59.5703 12.0078 59.4727 12.7109H63.3984V12.4863C63.3854 11.8613 63.2161 11.3796 62.8906 11.041C62.5651 10.696 62.1029 10.5234 61.5039 10.5234ZM5.47852 39.9199C5.99935 39.9199 6.42253 39.7767 6.74805 39.4902C7.07357 39.2038 7.24284 38.8229 7.25586 38.3477H9.90234C9.89583 39.0638 9.70052 39.7214 9.31641 40.3203C8.93229 40.9128 8.40495 41.375 7.73438 41.707C7.07031 42.0326 6.33464 42.1953 5.52734 42.1953C4.01693 42.1953 2.82552 41.7168 1.95312 40.7598C1.08073 39.7962 0.644531 38.4681 0.644531 36.7754V36.5898C0.644531 34.9622 1.07747 33.6634 1.94336 32.6934C2.80924 31.7233 3.9974 31.2383 5.50781 31.2383C6.82943 31.2383 7.88737 31.6159 8.68164 32.3711C9.48242 33.1198 9.88932 34.1191 9.90234 35.3691H7.25586C7.24284 34.8223 7.07357 34.3796 6.74805 34.041C6.42253 33.696 5.99284 33.5234 5.45898 33.5234C4.80143 33.5234 4.30339 33.7643 3.96484 34.2461C3.63281 34.7214 3.4668 35.4961 3.4668 36.5703V36.8633C3.4668 37.9505 3.63281 38.7318 3.96484 39.207C4.29688 39.6823 4.80143 39.9199 5.47852 39.9199ZM20.2832 33.6992H16.8945V42H14.0625V33.6992H10.7324V31.4336H20.2832V33.6992ZM31.2207 36.8145C31.2207 38.4421 30.8496 39.7474 30.1074 40.7305C29.3717 41.707 28.3757 42.1953 27.1191 42.1953C26.0514 42.1953 25.1888 41.8242 24.5312 41.082V46.0625H21.709V31.4336H24.3262L24.4238 32.4688C25.1074 31.6484 25.9993 31.2383 27.0996 31.2383C28.4017 31.2383 29.4141 31.7201 30.1367 32.6836C30.8594 33.6471 31.2207 34.9753 31.2207 36.668V36.8145ZM28.3984 36.6094C28.3984 35.6263 28.2227 34.8678 27.8711 34.334C27.526 33.8001 27.0215 33.5332 26.3574 33.5332C25.472 33.5332 24.8633 33.8717 24.5312 34.5488V38.875C24.8763 39.5716 25.4915 39.9199 26.377 39.9199C27.7246 39.9199 28.3984 38.8164 28.3984 36.6094ZM39.1016 42C38.9714 41.7461 38.877 41.4303 38.8184 41.0527C38.1348 41.8145 37.2461 42.1953 36.1523 42.1953C35.1172 42.1953 34.2578 41.8958 33.5742 41.2969C32.8971 40.6979 32.5586 39.9427 32.5586 39.0312C32.5586 37.9115 32.972 37.0521 33.7988 36.4531C34.6322 35.8542 35.8333 35.5514 37.4023 35.5449H38.7012V34.9395C38.7012 34.4512 38.5742 34.0605 38.3203 33.7676C38.0729 33.4746 37.679 33.3281 37.1387 33.3281C36.6634 33.3281 36.2891 33.4421 36.0156 33.6699C35.7487 33.8978 35.6152 34.2103 35.6152 34.6074H32.793C32.793 33.9954 32.9818 33.429 33.3594 32.9082C33.737 32.3874 34.2708 31.9805 34.9609 31.6875C35.651 31.388 36.4258 31.2383 37.2852 31.2383C38.5872 31.2383 39.6191 31.5671 40.3809 32.2246C41.1491 32.8757 41.5332 33.7936 41.5332 34.9785V39.5586C41.5397 40.5612 41.6797 41.3197 41.9531 41.834V42H39.1016ZM36.7676 40.0371C37.1842 40.0371 37.5684 39.946 37.9199 39.7637C38.2715 39.5749 38.5319 39.3242 38.7012 39.0117V37.1953H37.6465C36.2337 37.1953 35.4818 37.6836 35.3906 38.6602L35.3809 38.8262C35.3809 39.1777 35.5046 39.4674 35.752 39.6953C35.9993 39.9232 36.3379 40.0371 36.7676 40.0371ZM52.8613 42H50.0293V37.9375H46.5234V42H43.7012V31.4336H46.5234V35.6719H50.0293V31.4336H52.8613V42ZM58.0664 34.5293H60.0879C60.9993 34.5293 61.8001 34.6823 62.4902 34.9883C63.1803 35.2943 63.7077 35.7337 64.0723 36.3066C64.4434 36.873 64.6289 37.5339 64.6289 38.2891C64.6289 39.4023 64.2155 40.3008 63.3887 40.9844C62.5684 41.6615 61.4486 42 60.0293 42H55.2344V31.4336H58.0664V34.5293ZM69.1211 42H66.2988V31.4336H69.1211V42ZM58.0664 36.7949V39.7441H60.0684C60.6283 39.7441 61.0579 39.6139 61.3574 39.3535C61.6569 39.0931 61.8066 38.7383 61.8066 38.2891C61.8066 37.8333 61.6602 37.472 61.3672 37.2051C61.0742 36.9316 60.6413 36.7949 60.0684 36.7949H58.0664Z" transform="translate(29 14)" fill="white"/>
</svg>
