<svg width="113" height="113" viewBox="0 0 113 113" fill="none" xmlns="http://www.w3.org/2000/svg">
<path fill-rule="evenodd" clip-rule="evenodd" d="M0 34.5338V83.5338H113V35.5338C113 33.1338 110.333 32.2005 109 32.0338L95 32.0338V22.0338H111C112.2 22.0338 112.833 19.7005 113 18.5338V3.03381C113 0.233795 110.667 -0.132874 109.5 0.0338135H64.5C61.3 0.0338135 60.8333 2.03381 61 3.03381V18.5338C61 20.5338 63.3333 21.7005 64.5 22.0338H79.5V32.0338H44.5V12.0338C44.5 10.4338 42.1667 9.70047 41 9.53381H17.5C15.9 9.53381 14.8333 11.2005 14.5 12.0338V32.0338H2.5C0.899994 32.0338 0.166672 33.3671 0 34.5338ZM69 7.03381H106V15.0338H69V7.03381ZM37 17.0338H22V40.0338H37V17.0338ZM7 50.5338C7 48.6008 8.567 47.0338 10.5 47.0338H48.5C50.433 47.0338 52 48.6008 52 50.5338C52 52.4668 50.433 54.0338 48.5 54.0338H10.5C8.567 54.0338 7 52.4668 7 50.5338ZM73 47.0338C75.2091 47.0338 77 45.243 77 43.0338C77 40.8247 75.2091 39.0338 73 39.0338C70.7909 39.0338 69 40.8247 69 43.0338C69 45.243 70.7909 47.0338 73 47.0338ZM92 43.0338C92 45.243 90.2091 47.0338 88 47.0338C85.7909 47.0338 84 45.243 84 43.0338C84 40.8247 85.7909 39.0338 88 39.0338C90.2091 39.0338 92 40.8247 92 43.0338ZM103 47.0338C105.209 47.0338 107 45.243 107 43.0338C107 40.8247 105.209 39.0338 103 39.0338C100.791 39.0338 99 40.8247 99 43.0338C99 45.243 100.791 47.0338 103 47.0338ZM77 58.0338C77 60.243 75.2091 62.0338 73 62.0338C70.7909 62.0338 69 60.243 69 58.0338C69 55.8247 70.7909 54.0338 73 54.0338C75.2091 54.0338 77 55.8247 77 58.0338ZM88 62.0338C90.2091 62.0338 92 60.243 92 58.0338C92 55.8247 90.2091 54.0338 88 54.0338C85.7909 54.0338 84 55.8247 84 58.0338C84 60.243 85.7909 62.0338 88 62.0338ZM107 58.0338C107 60.243 105.209 62.0338 103 62.0338C100.791 62.0338 99 60.243 99 58.0338C99 55.8247 100.791 54.0338 103 54.0338C105.209 54.0338 107 55.8247 107 58.0338ZM73 77.0338C75.2091 77.0338 77 75.243 77 73.0338C77 70.8247 75.2091 69.0338 73 69.0338C70.7909 69.0338 69 70.8247 69 73.0338C69 75.243 70.7909 77.0338 73 77.0338ZM92 73.0338C92 75.243 90.2091 77.0338 88 77.0338C85.7909 77.0338 84 75.243 84 73.0338C84 70.8247 85.7909 69.0338 88 69.0338C90.2091 69.0338 92 70.8247 92 73.0338ZM103 77.0338C105.209 77.0338 107 75.243 107 73.0338C107 70.8247 105.209 69.0338 103 69.0338C100.791 69.0338 99 70.8247 99 73.0338C99 75.243 100.791 77.0338 103 77.0338Z" fill="#4B789F"/>
<path fill-rule="evenodd" clip-rule="evenodd" d="M0 0V13C0.5 15.8333 2.8 21.5 8 21.5H106C108.333 21.1667 113 19 113 13V0H0ZM69 7H44V10C44 12.7614 46.2386 15 49 15H64C66.7614 15 69 12.7614 69 10V7Z" transform="translate(0 91.0338)" fill="#4B789F"/>
</svg>
