<svg width="115" height="112" viewBox="0 0 115 112" fill="none" xmlns="http://www.w3.org/2000/svg">
<rect width="35" height="36" rx="3" transform="translate(0 35)" fill="#4B789F"/>
<circle cx="6" cy="6" r="10" transform="translate(25 92)" stroke="#4B789F" stroke-width="8"/>
<circle cx="6" cy="6" r="10" transform="translate(94 92)" stroke="#4B789F" stroke-width="8"/>
<path d="M48 22.5H77.5V28H41L40 21.5C39.1667 17.3333 34.8 9 24 9C13.2 9 9.16667 17.6667 8.5 22V28H0C0 22 3.33333 13.1667 5 9.5C4.16667 9 2.5 7.3 2.5 4.5C2.5 1.7 4.16667 0.333333 5 0H44.5C46 0 47.5 1.5 47.5 4.5C47.5 7.5 46 9 44.5 9.5C44.5 11 44.5 11.5 45 14L48 22.5Z" transform="translate(6.5 73)" fill="#4B789F"/>
<path d="M3.78631 34.5077C6.18631 28.9077 12.7863 27.1744 15.7863 27.0077C22.0967 28.0595 21.9546 34.0529 20.8133 37.9865C22.5295 39.9053 24.9006 42.1823 27.2863 43.5077C30.8863 45.5077 35.7863 46.0077 37.7863 46.0077C39.1196 46.3411 41.8863 47.4077 42.2863 49.0077C42.6863 50.6077 41.1196 52.3411 40.2863 53.0077C33.4863 55.4077 27.453 53.3411 25.2863 52.0077C23.998 51.4012 21.5548 50.0382 18.8066 48.0701C18.3655 50.7644 17.9686 53.3672 17.7863 55.0077C17.3863 58.6077 18.953 59.5077 19.7863 59.5077C22.2863 59.8411 28.0863 60.5077 31.2863 60.5077C34.4863 60.5077 37.2863 64.8411 38.2863 67.0077L44.2863 82.5077C45.2863 85.1744 46.2863 90.9077 42.2863 92.5077C38.2863 94.1077 35.2863 91.5077 34.2863 90.0077C32.453 86.0077 28.4863 77.2077 27.2863 74.0077C27.2863 71.2077 17.6196 70.1744 12.7863 70.0077C10.7863 70.1744 5.98631 69.7077 2.78631 66.5077C-0.413689 63.3077 -0.213689 52.1744 0.286311 47.0077C0.452978 45.1744 1.38631 40.1077 3.78631 34.5077Z" transform="translate(37.7137 0.992279)" fill="#4B789F"/>
<path d="M8.78632 13.5077C8.78632 2.30773 17.453 -0.158939 21.7863 0.00772799C25.953 0.00772799 34.2863 2.70773 34.2863 13.5077C34.2863 24.3077 25.953 26.6744 21.7863 26.5077C17.453 26.8411 8.78632 24.7077 8.78632 13.5077Z" transform="translate(37.7137 0.992279)" fill="#4B789F"/>
<path d="M15 8C15 2.8 19.6667 0.5 22 0C23.3333 0.5 26 2.8 26 8C26 13.2 23.3333 15.1667 22 15.5C19.6667 15.1667 15 13.2 15 8Z" transform="translate(70 47)" fill="#4B789F"/>
<path d="M12 5C10 9 3.16667 10 0 10C2 11.6 5.83333 11.6667 7.5 11.5L14 29L18.5 39.5C22 36.5 25.5 35 30.5 35C35.5 35 39 38 42.5 41C45.3 43.4 45 41 44.5 39.5C43.8333 38.3333 41.8 35.4 39 33C36.2 30.6 30.5 30 28 30C27.6667 29 26.7 26.5 25.5 24.5C24.3 22.5 21.3333 19.6667 20 18.5C19 17.8333 16.6 16.1 15 14.5C13.4 12.9 12.3333 7.5 12 5Z" transform="translate(70 47)" fill="#4B789F"/>
</svg>
