<svg id="Слой_1" data-name="Слой 1" xmlns="http://www.w3.org/2000/svg" viewBox="0 0 426.16 272.77">
    <defs>
        <style>.cls-1{fill:#fe3f40;}.cls-2{fill:#fff;}.cls-3{fill:#333;}</style>
    </defs>
    <title>logo</title>
    <rect class="cls-1" x="105.8" width="214" height="214"/>
    <path class="cls-2"
          d="M290,212.89a31.13,31.13,0,0,1-4.67-3.68A18.23,18.23,0,0,1,280,198.27a44.89,44.89,0,0,0-.55-5.65,14.23,14.23,0,0,0-5.46-8.77,12.42,12.42,0,0,0-4.95-2.11,20.35,20.35,0,0,0-5.72-.19,14.7,14.7,0,0,1,5.86-1.28,12.44,12.44,0,0,1,6,1.58A14.94,14.94,0,0,1,282.42,192a39.59,39.59,0,0,1,.44,6,19.24,19.24,0,0,0,1.07,5.33,21.37,21.37,0,0,0,2.56,4.94C287.53,209.87,288.86,211.3,290,212.89Z"
          transform="translate(-49.2 -114)"/>
    <circle class="cls-2" cx="220.25" cy="72.5" r="2.11"/>
    <path class="cls-2"
          d="M265.5,183.5c-1-.42-2-.9-3-1.35l-2.83-1.39a54.08,54.08,0,0,0-5.53-2.42l1.53-2.48a12.43,12.43,0,0,1,2,2.7,17.7,17.7,0,0,1,1.28,2.91,25.88,25.88,0,0,1,.79,3c.27,1,.53,2,.75,3-.59-.85-1.13-1.72-1.67-2.59s-1.2-1.66-1.76-2.47a36.94,36.94,0,0,0-3.47-4.45l-4.47-4.49,6,2a19.83,19.83,0,0,1,5.86,3.23,23.82,23.82,0,0,1,2.44,2.19A17.4,17.4,0,0,1,265.5,183.5Z"
          transform="translate(-49.2 -114)"/>
    <path class="cls-2"
          d="M259.3,185a8.25,8.25,0,0,0-.48,2.47c-.06.82-.09,1.63-.1,2.44s0,1.61,0,2.4a13.35,13.35,0,0,0,.24,2.16,24.07,24.07,0,0,1,.84,5.15,10.86,10.86,0,0,1-.23,2.75,5.41,5.41,0,0,1-.5,1.35,2.34,2.34,0,0,1-1,1,4.21,4.21,0,0,0,0-2.41c-.17-.78-.39-1.56-.63-2.34-.47-1.57-1-3.1-1.43-4.81a10.12,10.12,0,0,1-.16-2.92,14.3,14.3,0,0,1,.47-2.69,11.57,11.57,0,0,1,1-2.54A4.91,4.91,0,0,1,259.3,185Z"
          transform="translate(-49.2 -114)"/>
    <path class="cls-2"
          d="M319,211.15a55.32,55.32,0,0,1,10.18-3.21,30.19,30.19,0,0,1,5.45-.64,11.44,11.44,0,0,1,2.94.29,5.53,5.53,0,0,1,3.07,1.74,3.89,3.89,0,0,1,.56.89l.21.49.12.5a4,4,0,0,1,.1,1,4.54,4.54,0,0,1-.06.89,9.81,9.81,0,0,1-1,3,22.21,22.21,0,0,1-3.25,4.74,41.49,41.49,0,0,1-8.43,7.1,62.65,62.65,0,0,1-20,8.22,72.62,72.62,0,0,1-21.25,1.71,147.46,147.46,0,0,0,20.42-4.72,78.79,78.79,0,0,0,18.62-8.57,44.62,44.62,0,0,0,7.82-6.3,18.72,18.72,0,0,0,2.93-3.79,7.21,7.21,0,0,0,.8-1.94,1.62,1.62,0,0,0-.07-1.27,2.57,2.57,0,0,0-1.4-.89,11.08,11.08,0,0,0-2.28-.45,29.45,29.45,0,0,0-5.08,0C326,210.07,322.54,210.6,319,211.15Z"
          transform="translate(-49.2 -114)"/>
    <path class="cls-2"
          d="M328.91,185a43.61,43.61,0,0,1,7.22-4.24,25.46,25.46,0,0,1,8.3-2.45,11.43,11.43,0,0,1,2.42.06,6.74,6.74,0,0,1,2.58,1,5,5,0,0,1,2,2.41,5.66,5.66,0,0,1,.22,3,12.24,12.24,0,0,1-2,4.43,30.9,30.9,0,0,1-2.8,3.4,74,74,0,0,1-13.12,10.53A95.81,95.81,0,0,1,319,211.15c4.23-3.6,8.53-7,12.77-10.47a144,144,0,0,0,12.05-10.75,28.8,28.8,0,0,0,2.48-2.93,9.32,9.32,0,0,0,1.56-2.93,1.53,1.53,0,0,0-.5-1.8,5.07,5.07,0,0,0-2.9-.8,20,20,0,0,0-3.8.32,38.57,38.57,0,0,0-3.92.86C334.15,183.31,331.55,184.18,328.91,185Z"
          transform="translate(-49.2 -114)"/>
    <path class="cls-2"
          d="M283.09,204.31a53.18,53.18,0,0,1,5.07-7c1.81-2.25,3.71-4.44,5.62-6.61q5.78-6.48,12-12.54a172.44,172.44,0,0,1,27.08-22,84.3,84.3,0,0,1,7.74-4.28,44.44,44.44,0,0,1,8.42-3.18,20.27,20.27,0,0,1,2.26-.47l1.14-.2,1.19-.09,1.18-.08a3.57,3.57,0,0,1,2,.43,2.74,2.74,0,0,1,1.05,1.09,3,3,0,0,1,.33,1.23,4.75,4.75,0,0,1-.23,1.67,12.13,12.13,0,0,1-1,2.31c-.38.69-.77,1.34-1.2,2-.84,1.25-1.73,2.42-2.64,3.58a168.41,168.41,0,0,1-11.62,13c-4.07,4.1-8.21,8.13-12.56,11.95,3.7-4.43,7.45-8.81,11.1-13.26s7.28-8.9,10.58-13.52c.81-1.16,1.6-2.33,2.31-3.51a15.36,15.36,0,0,0,1.67-3.42,1.34,1.34,0,0,0,.07-.46.47.47,0,0,0,.06.2.87.87,0,0,0,.31.33c.18.1.18,0-.12.07l-1,.1-1,.1-1,.21a16.91,16.91,0,0,0-2,.47c-5.23,1.47-10.23,4.21-15,7.18a156.19,156.19,0,0,0-13.89,9.88c-4.52,3.49-8.87,7.22-13.2,11S299.34,188,295.18,192c-2.1,2-4.16,4-6.2,6q-1.54,1.51-3,3.07A27.42,27.42,0,0,0,283.09,204.31Z"
          transform="translate(-49.2 -114)"/>
    <path class="cls-2"
          d="M216.38,222.17a32.41,32.41,0,0,0-9.56.94,23.36,23.36,0,0,0-8.35,3.73,5.46,5.46,0,0,0-2.18,2.79,1.07,1.07,0,0,0,.28.87l.24.24.37.3a7.07,7.07,0,0,0,.81.57,31.38,31.38,0,0,0,8.53,3.06c6.17,1.46,12.58,2.44,19,3.44s12.86,1.93,19.3,3.2a160.3,160.3,0,0,1-19.64-.1,117.3,117.3,0,0,1-19.59-2.66,30.42,30.42,0,0,1-9.67-3.8,10.63,10.63,0,0,1-1.14-.9l-.55-.51c-.19-.21-.38-.45-.57-.68a4.69,4.69,0,0,1-.78-3.74,6.2,6.2,0,0,1,1.62-2.87,11.52,11.52,0,0,1,2.21-1.76,22.68,22.68,0,0,1,9.8-3.11A25.07,25.07,0,0,1,216.38,222.17Z"
          transform="translate(-49.2 -114)"/>
    <path class="cls-2"
          d="M210.58,196.07c-2.72-.37-5.4-.8-8.09-1.11a72.84,72.84,0,0,0-7.93-.67,18.52,18.52,0,0,0-3.66.29,3.81,3.81,0,0,0-1.25.48c-.24.2-.19.21-.21.32a.3.3,0,0,1,0,.14l.06.24a3.22,3.22,0,0,0,.2.61c.23.5.53,1.1.81,1.63a32.31,32.31,0,0,0,2,3.21,66.89,66.89,0,0,0,10.8,11.38,135,135,0,0,0,13,9.57,52.38,52.38,0,0,1-14.9-7.09,47.92,47.92,0,0,1-12.17-11.55,34,34,0,0,1-2.27-3.69c-.33-.67-.62-1.3-.93-2a6.84,6.84,0,0,1-.38-1.34,7.15,7.15,0,0,1-.1-.76c0-.29,0-.58.06-.87a4,4,0,0,1,.73-1.74c.09-.13.19-.26.29-.38l.33-.29a3.38,3.38,0,0,1,.68-.49,6.93,6.93,0,0,1,2.58-.82,17.62,17.62,0,0,1,4.46.08,46.26,46.26,0,0,1,8.14,1.86A59.26,59.26,0,0,1,210.58,196.07Z"
          transform="translate(-49.2 -114)"/>
    <path class="cls-2"
          d="M261,211.15a1.83,1.83,0,0,0-.1-1.27,9,9,0,0,0-.51-1.2,22.26,22.26,0,0,0-1.31-2.27,47.23,47.23,0,0,0-3.07-4.24,79.64,79.64,0,0,0-7.09-7.69,90.09,90.09,0,0,0-7.91-6.81,97.06,97.06,0,0,0-8.56-5.91c-1.48-.9-3-1.77-4.51-2.58s-3-1.61-4.61-2.32c-3.14-1.45-6.38-2.73-9.65-3.94-6.54-2.43-13.2-4.59-19.93-6.41-3.36-.93-6.74-1.79-10.13-2.5a71.65,71.65,0,0,0-10.14-1.49,22.94,22.94,0,0,0-2.43,0,7.55,7.55,0,0,0-2.05.34,1.28,1.28,0,0,0-.45.23s0-.08,0,0a3,3,0,0,0,.63,1.41l.72.92a7.23,7.23,0,0,0,.77.91l1.77,1.79c1.27,1.15,2.53,2.32,3.89,3.41,5.37,4.42,11.08,8.54,16.83,12.58s11.57,8,17.4,12c-6.28-3.23-12.41-6.73-18.47-10.36a205.74,205.74,0,0,1-17.7-11.78,40.12,40.12,0,0,1-8.11-7.51A6,6,0,0,1,165,163a3.56,3.56,0,0,1,.94-2.41,4.61,4.61,0,0,1,1.76-1.16,10.89,10.89,0,0,1,3.12-.66,26.54,26.54,0,0,1,2.85-.06,69.52,69.52,0,0,1,10.77,1.45c3.51.71,7,1.54,10.41,2.47,6.85,1.93,13.6,4.13,20.23,6.73,3.31,1.32,6.58,2.72,9.8,4.31a78,78,0,0,1,9.29,5.45,88.68,88.68,0,0,1,16.19,14,74.2,74.2,0,0,1,6.58,8.4,46.52,46.52,0,0,1,2.71,4.6,22.69,22.69,0,0,1,1.07,2.45,9.19,9.19,0,0,1,.38,1.28A1.89,1.89,0,0,1,261,211.15Z"
          transform="translate(-49.2 -114)"/>
    <path class="cls-2"
          d="M268,257a6.44,6.44,0,0,0,1.16-1c.36-.36.72-.73,1.06-1.11.69-.75,1.39-1.49,2.07-2.26,1.38-1.51,2.72-3,4.08-4.56s2.71-3,4-4.6,2.67-3.06,3.95-4.63c2.6-3.11,5.15-6.25,7.51-9.52,1.16-1.64,2.3-3.31,3.3-5.05a23.25,23.25,0,0,0,2.45-5.55,16.5,16.5,0,0,1-1.11,6.16,37.54,37.54,0,0,1-2.66,5.7,69.32,69.32,0,0,1-7.19,10.18,95,95,0,0,1-8.6,8.94c-1.52,1.4-3.11,2.73-4.75,4-.83.62-1.66,1.24-2.53,1.82A10.82,10.82,0,0,1,268,257Z"
          transform="translate(-49.2 -114)"/>
    <path class="cls-2"
          d="M254.66,268.57a33.62,33.62,0,0,0,1.06,6.71,41,41,0,0,0,2.12,6.32,23.51,23.51,0,0,0,1.49,2.84,5.42,5.42,0,0,0,1.82,1.94.68.68,0,0,0,.58.09l.14,0,.17-.13a1.64,1.64,0,0,0,.39-.37,8.84,8.84,0,0,0,1.41-2.53,43.84,43.84,0,0,0,1.9-6.29c.53-2.17,1-4.42,1.34-6.59A102.21,102.21,0,0,0,268,257a45.06,45.06,0,0,1,1.41,13.8,33.39,33.39,0,0,1-.35,3.49c-.14,1.15-.34,2.3-.54,3.44a35.92,35.92,0,0,1-1.92,6.86l-.37.85-.46.85a6,6,0,0,1-.53.84,5.17,5.17,0,0,1-.66.82,4.27,4.27,0,0,1-.88.77,5.76,5.76,0,0,1-.54.34l-.67.24a3.45,3.45,0,0,1-2.7-.4,7.89,7.89,0,0,1-2.71-3.09,18.32,18.32,0,0,1-1.42-3.35,31.19,31.19,0,0,1-1.38-6.91A22.49,22.49,0,0,1,254.66,268.57Z"
          transform="translate(-49.2 -114)"/>
    <path class="cls-2"
          d="M234.36,269.15a76.87,76.87,0,0,0,.43,12,18.67,18.67,0,0,0,1.38,5.42,3,3,0,0,0,1.25,1.5,2,2,0,0,0,1.64-.27,17.47,17.47,0,0,0,4.11-3.6c1.29-1.47,2.5-3,3.71-4.64,2.39-3.21,4.67-6.56,7.15-9.83a65.57,65.57,0,0,1-5.2,11.12,46.43,46.43,0,0,1-3.48,5.17,17.31,17.31,0,0,1-4.92,4.44,6.53,6.53,0,0,1-1.93.6,3.55,3.55,0,0,1-1.13,0,3.44,3.44,0,0,1-1.14-.33,4.58,4.58,0,0,1-1.69-1.37,5,5,0,0,1-.54-.81,4.43,4.43,0,0,1-.4-.82,13.72,13.72,0,0,1-.86-3.24,20.94,20.94,0,0,1-.26-3.18A35.22,35.22,0,0,1,234.36,269.15Z"
          transform="translate(-49.2 -114)"/>
    <path class="cls-2"
          d="M212.32,270.89c-.25,1.56-.49,3.1-.59,4.61a12.2,12.2,0,0,0,.23,4.23c.46,1.22.93,1.36,2.13,1.28a13.24,13.24,0,0,0,3.83-1.43c2.61-1.34,5.16-3.06,7.74-4.72s5.14-3.45,7.9-5a49.9,49.9,0,0,1-6.47,6.87,38.9,38.9,0,0,1-7.8,5.54,13.43,13.43,0,0,1-4.94,1.58,4.73,4.73,0,0,1-3.11-.83,4.2,4.2,0,0,1-1.54-2.77,11.29,11.29,0,0,1,.6-5A19.24,19.24,0,0,1,212.32,270.89Z"
          transform="translate(-49.2 -114)"/>
    <path class="cls-2"
          d="M229.72,247.11c-5.18,3.53-10.44,6.88-15.69,10.23-2.61,1.7-5.25,3.34-7.84,5.06s-5.19,3.39-7.68,5.2c-1.25.89-2.48,1.79-3.64,2.75-.58.48-1.13,1-1.63,1.47a6.21,6.21,0,0,0-1.08,1.37c-.51,1.22-.65,2.62-.19,3.2s1.74.91,3.14.77a21.16,21.16,0,0,0,4.33-.92c1.45-.44,2.9-1,4.33-1.56,2.88-1.14,5.7-2.47,8.55-3.78A71.18,71.18,0,0,1,204.4,276a29.72,29.72,0,0,1-9,3.47,8.94,8.94,0,0,1-2.7.05,4.4,4.4,0,0,1-2.81-1.56,4.76,4.76,0,0,1-.91-3.07,9.22,9.22,0,0,1,.53-2.71,7.47,7.47,0,0,1,1.66-2.39c.59-.61,1.2-1.17,1.82-1.69,1.24-1,2.5-2,3.79-2.94a165.7,165.7,0,0,1,16.07-9.82C218.35,252.35,223.95,249.55,229.72,247.11Z"
          transform="translate(-49.2 -114)"/>
    <path class="cls-2"
          d="M231.5,241.5a2.86,2.86,0,0,1,.32,1.54,5.1,5.1,0,0,1-.34,1.54,6.07,6.07,0,0,1-1.76,2.53c.32-1,.72-1.88,1.06-2.79A9.77,9.77,0,0,0,231.5,241.5Z"
          transform="translate(-49.2 -114)"/>
    <path class="cls-2"
          d="M249.29,252.94c2.45-.18,4.78-.21,7.08-.44s4.57-.52,6.87-.85l6.94-1a63.42,63.42,0,0,1,7.16-.62A35,35,0,0,1,270.7,253a40.43,40.43,0,0,1-7,1.67,30.86,30.86,0,0,1-7.31.23A21.71,21.71,0,0,1,249.29,252.94Z"
          transform="translate(-49.2 -114)"/>
    <path class="cls-3"
          d="M88.41,385.93H82.1V356.84L71.61,385.93h-5.4L55.46,356.84v29.08H49.2V348.21h9.27L69,377.71l10.17-29.51h9.22Z"
          transform="translate(-49.2 -114)"/>
    <path class="cls-3" d="M112.84,370.93v15h-6.52v-15L92.07,348.21H99.7l10,16.69,9.91-16.69H127Z"
          transform="translate(-49.2 -114)"/>
    <path class="cls-3"
          d="M151.46,359.33c-.42-4.72-3.55-6.62-8.21-6.62-4.5,0-7.21,2-7.21,5.25,0,3.6,2.33,3.81,9.59,5.72,6.41,1.64,13.62,3.18,13.62,11.28,0,8.53-7.58,11.81-15,11.81-9,0-15.89-4.24-15.89-13.35h6.52c0,5.83,4.4,8.11,9.75,8.11,5.09,0,8.11-2.22,8.11-5.93,0-3.92-3.23-4.61-8.79-6-8-2.07-14.2-3.39-14.2-11.07,0-6.73,5.46-11,13.93-11,7.68,0,13.77,3.44,14.09,11.87Z"
          transform="translate(-49.2 -114)"/>
    <path class="cls-3" d="M190.78,385.93H164.92V348.21h6.68v32h19.18Z" transform="translate(-49.2 -114)"/>
    <path class="cls-3" d="M202.12,385.93h-6.68V348.21h6.68Z" transform="translate(-49.2 -114)"/>
    <path class="cls-3" d="M237.19,353.93h-12v32h-6.62v-32h-12v-5.72h30.67Z" transform="translate(-49.2 -114)"/>
    <path class="cls-3"
          d="M262.36,359.33c-.42-4.72-3.55-6.62-8.21-6.62-4.5,0-7.21,2-7.21,5.25,0,3.6,2.33,3.81,9.59,5.72,6.41,1.64,13.62,3.18,13.62,11.28,0,8.53-7.58,11.81-15,11.81-9,0-15.89-4.24-15.89-13.35h6.52c0,5.83,4.4,8.11,9.75,8.11,5.09,0,8.11-2.22,8.11-5.93,0-3.92-3.23-4.61-8.79-6-8-2.07-14.2-3.39-14.2-11.07,0-6.73,5.46-11,13.93-11,7.68,0,13.77,3.44,14.09,11.87Z"
          transform="translate(-49.2 -114)"/>
    <path class="cls-3"
          d="M292.35,363.25l16.05,22.67h-8.21l-12.4-18.07-5.4,5.4v12.66h-6.57V348.21h6.57v17.11l16.69-17.11h8.37Z"
          transform="translate(-49.2 -114)"/>
    <path class="cls-3" d="M328.7,370.93v15h-6.52v-15l-14.25-22.73h7.63l10,16.69,9.91-16.69h7.42Z"
          transform="translate(-49.2 -114)"/>
    <path class="cls-3" d="M391.8,385.93H385l-17.59-27.76v27.76h-6.25V348.21h6.94L385.45,376V348.21h6.36Z"
          transform="translate(-49.2 -114)"/>
    <path class="cls-3"
          d="M431.28,385.93h-7.1l-3.6-10H405.63l-3.71,10h-6.83l14.57-37.77h7ZM413.21,355l-5.88,15.89h11.5Z"
          transform="translate(-49.2 -114)"/>
    <path class="cls-3" d="M441.56,385.93h-6.68V348.21h6.68Z" transform="translate(-49.2 -114)"/>
    <path class="cls-3" d="M475.36,385.93H449.51V348.21h6.68v32h19.18Z" transform="translate(-49.2 -114)"/>
</svg>