<svg width="11" height="18" viewBox="0 0 11 18" fill="none" xmlns="http://www.w3.org/2000/svg">
<path d="M2.62039 14.703V10.6572C2.62039 10.4969 2.50837 10.3627 2.35727 10.3254V3.77867C2.36242 3.60898 2.42173 1.17223 1.58315 0.129878C1.46388 -0.0183975 1.24499 -0.0433765 1.09427 0.0738921C1.07269 0.090697 1.05394 0.109694 1.03761 0.130015L1.03733 0.129832C0.198887 1.17219 0.258054 3.60898 0.263297 3.77863V10.3253C0.11211 10.3627 8.80712e-05 10.4968 8.80712e-05 10.6572V14.7C-0.000190358 14.731 -0.00487685 15.4652 0.115358 16.2167C0.300514 17.3741 0.698668 17.9708 1.29859 17.9905C1.30249 17.9907 1.30639 17.9907 1.31019 17.9907C1.31409 17.9907 1.31799 17.9907 1.32179 17.9905C1.92181 17.9708 2.31987 17.3741 2.50512 16.2167C2.6254 15.4652 2.62067 14.731 2.62039 14.703ZM1.31019 1.06054C1.6353 1.9185 1.67869 3.23416 1.66138 3.76205C1.6612 3.7658 1.6612 3.76954 1.6612 3.77329V10.3147H0.959417V3.77329C0.959417 3.76954 0.959324 3.7658 0.959232 3.76205C0.941598 3.23434 0.984337 1.919 1.31019 1.06054ZM1.31028 17.3051C0.982805 17.2656 0.685906 16.0159 0.696255 14.7029V10.9996H1.92436V14.7057C1.93545 16.016 1.63855 17.2656 1.31028 17.3051Z" transform="translate(4.28467)" fill="#37426D"/>
<path d="M2.6287 3.64389C2.6287 3.46936 2.49603 3.3256 2.32442 3.30437V2.73762C2.32442 2.64679 2.30502 2.55258 2.22247 2.49541C2.22173 2.4949 1.91221 2.32348 2.22256 2.0088C2.84267 1.3798 2.6926 0.562987 2.22256 0.100352C2.13439 0.0134964 2.00548 -0.0201591 1.88529 0.0119436C1.76482 0.044092 1.67113 0.137204 1.63967 0.256025C1.58872 0.448139 1.42788 0.744416 1.31855 0.744416C1.2172 0.744416 1.05715 0.475264 0.997519 0.25607C0.966057 0.137249 0.872365 0.0441376 0.751898 0.0119436C0.631802 -0.0200678 0.502842 0.0134964 0.414627 0.100306C-0.0555015 0.562896 -0.215181 1.38898 0.414627 2.00875C0.61375 2.20479 0.522936 2.38316 0.414627 2.49541C0.345669 2.56007 0.312676 2.64386 0.312676 2.73762V3.30437C0.141209 3.3256 0.00839818 3.46931 0.00839818 3.64389V10.9882C0.00821256 11.0191 0.00343326 11.7533 0.123668 12.5048C0.308824 13.6622 0.706978 14.2589 1.3069 14.2787C1.3108 14.2788 1.3147 14.2788 1.3185 14.2788C1.3224 14.2788 1.3263 14.2788 1.3301 14.2787C1.93012 14.2589 2.32818 13.6622 2.51343 12.5048C2.63362 11.7533 2.62888 11.0191 2.6286 10.991V3.64389H2.6287ZM1.31855 1.42944C1.58357 1.42944 1.78575 1.30386 1.93634 1.14129C1.91996 1.26555 1.85819 1.39537 1.73035 1.52443C1.14592 2.11383 1.57238 2.78383 1.62839 2.85991V3.3014H1.0088V2.86283C1.25108 2.54011 1.38528 1.99537 0.906937 1.52443C0.777421 1.39702 0.717233 1.26555 0.700852 1.14129C0.851436 1.30391 1.05353 1.42944 1.31855 1.42944ZM1.31855 13.5931C0.991069 13.5537 0.69417 12.304 0.704519 10.991V3.98638H1.93262V10.9938C1.94302 12.304 1.64612 13.5537 1.31855 13.5931Z" transform="translate(8.3667 3.71194)" fill="#37426D"/>
<path d="M2.88694 4.81966V0.342541C2.88694 0.238652 2.83901 0.140426 2.75668 0.0753989C2.67441 0.0104171 2.56652 -0.0143795 2.4635 0.00813351C2.37992 0.026354 2.29375 0.0477254 2.21045 0.0683661C1.95968 0.130471 1.70037 0.194768 1.44343 0.194768C1.18657 0.194768 0.927171 0.130517 0.676398 0.0683661C0.593102 0.0477254 0.507021 0.026354 0.423445 0.00813351C0.32038 -0.0143338 0.212535 0.0104171 0.130259 0.0753989C0.0479833 0.140426 4.69939e-05 0.238652 4.69939e-05 0.342541L9.33734e-05 4.81642C-0.000185056 4.84747 -0.00566106 5.58547 0.131976 6.34064C0.255645 7.01954 0.458249 7.50455 0.737235 7.79275C0.906984 7.99057 1.1604 8.1167 1.44356 8.1167C1.72663 8.1167 1.98005 7.99057 2.1498 7.79275C2.42879 7.5046 2.63144 7.01954 2.75515 6.34064C2.89265 5.58547 2.88722 4.84743 2.88694 4.81966ZM0.696028 0.778736C0.925315 0.832347 1.17595 0.879794 1.44338 0.879794C1.71095 0.879794 1.96154 0.832301 2.19082 0.778736V0.901256C1.95587 0.975828 1.70158 1.01505 1.44347 1.01505C1.18527 1.01505 0.93093 0.975828 0.696028 0.901256V0.778736ZM1.67202 1.69086C1.67202 1.69122 1.67202 1.69163 1.67202 1.69195C1.67202 1.81593 1.56951 1.91681 1.44352 1.91681C1.31753 1.91681 1.21502 1.81593 1.21502 1.69195C1.21502 1.69159 1.21493 1.69117 1.21493 1.69086C1.3669 1.70136 1.52009 1.70136 1.67202 1.69086ZM1.44352 7.43875C1.31345 7.43875 1.20806 7.33504 1.20806 7.20709C1.20806 7.07914 1.31345 6.97543 1.44352 6.97543C1.5735 6.97543 1.67888 7.07914 1.67888 7.20709C1.67888 7.335 1.5735 7.43875 1.44352 7.43875ZM2.06998 6.21972C2.05258 6.31534 2.03337 6.4058 2.01281 6.49133C1.85564 6.37 1.65823 6.29693 1.44352 6.29693C1.22825 6.29693 1.03051 6.37032 0.873155 6.49211C0.751064 5.98353 0.691341 5.35107 0.696167 4.81962V2.22541C0.864385 2.45296 1.13627 2.60179 1.44352 2.60179C1.75067 2.60179 2.02265 2.45296 2.19087 2.22541V4.8229C2.19096 4.82989 2.19616 5.52706 2.06998 6.21972Z" transform="translate(0 9.8833)" fill="#37426D"/>
</svg>
