<svg width="107" height="108" viewBox="0 0 107 108" fill="none" xmlns="http://www.w3.org/2000/svg">
<path fill-rule="evenodd" clip-rule="evenodd" d="M38 36L68.5 0L94.5 22L53.5 71.5L31 52.5C35.8333 55.1667 46.4 59.1 50 53.5C53.6 47.9 49.1667 43.5 46.5 42L38 36ZM37 18.5C29.8 16.9 16 21.1667 10 23.5V44.5C10.5 44.5 12.3 44.2 15.5 43C17.9629 42.0764 20.2641 43.4579 21.9254 44.4552L22 44.5C23.3196 45.2918 25.1966 46.1672 26.9689 46.9938C28.5541 47.7331 30.0557 48.4335 31 49C35.1667 51.5 44.3 55.7 47.5 52.5C50.7 49.3 49.5 46 43.5 43.5C42.796 43.2067 42.0161 42.8999 41.1998 42.5788L41.1989 42.5784L41.1984 42.5782C36.7971 40.8468 31.3374 38.6991 31 36C30.6 32.8 34.8333 32.3333 37 32.5L47.5 20.5C47 20.5 44.2 20.1 37 18.5ZM6.5 20.5H0L3 49H6.5V20.5ZM31 83C25.4 79 26.6667 74.6667 28 73C30.4 70.6 34.3333 72 36 73C38 74.6667 42.6 78.4 45 80C47.4 81.6 51.6667 82.6667 53.5 83H69.5C75.1 83 71.8333 81.3333 69.5 80.5H62.5C60.6667 80.6667 56.8 80.2 56 77C55.2 73.8 58.3333 72.3333 60 72C66 71.8333 79.5 71.6 85.5 72C91.5 72.4 96.6667 79.5 98.5 83L104 98L81 100C80.1667 100 78.4 99.6 78 98C77.6 96.4 73.8333 96.3333 72 96.5H53.5C50.3 96.5 46.5 94.5 45 93.5C42.6667 91.6667 36.6 87 31 83ZM78 103.5L107 100.5V107.5H78V103.5ZM61.5 46.5C67.8513 46.5 73 41.3513 73 35C73 28.6487 67.8513 23.5 61.5 23.5C55.1487 23.5 50 28.6487 50 35C50 41.3513 55.1487 46.5 61.5 46.5Z" fill="#4B789F"/>
<path d="M10.2091 9.879C9.97184 9.40857 9.63295 9.02368 9.20934 8.71576C8.78572 8.40784 8.26044 8.15125 7.65891 7.93741C7.04891 7.72358 6.37113 7.52686 5.6171 7.34724C5.01557 7.19328 4.58349 7.08209 4.32932 6.99656C4.06668 6.91958 3.81251 6.80838 3.55834 6.66298C3.30418 6.52613 3.10084 6.35506 2.95681 6.15834C2.81279 5.96161 2.73654 5.73068 2.73654 5.46552C2.73654 5.02931 2.94834 4.66152 3.38043 4.3536C3.80404 4.04569 4.37168 3.89173 5.06641 3.89173C5.82044 3.89173 6.36266 4.03713 6.70155 4.31939C7.04044 4.60165 7.3285 5.00365 7.57419 5.50829C7.76058 5.85897 7.9385 6.11557 8.09947 6.27808C8.26044 6.43204 8.49767 6.50902 8.80267 6.50902C9.14156 6.50902 9.42114 6.38072 9.64989 6.11557C9.87864 5.85897 9.98878 5.56817 9.98878 5.24314C9.98878 4.89246 9.89559 4.52467 9.71767 4.14832C9.53975 3.77198 9.2517 3.4213 8.8535 3.07917C8.46378 2.73704 7.96391 2.47189 7.37086 2.26661C6.99808 2.13831 6.59141 2.05278 6.13391 2.00146V0H4.43099V2.00146C3.74474 2.06133 3.12626 2.20674 2.58404 2.42912C1.83001 2.73704 1.24542 3.18181 0.847225 3.75487C0.449029 4.32794 0.245696 4.98654 0.245696 5.73068C0.245696 6.50902 0.432085 7.15907 0.813336 7.68082C1.19459 8.20257 1.70292 8.61312 2.34681 8.92104C2.99071 9.2204 3.79557 9.48555 4.75293 9.71649C5.4646 9.879 6.04072 10.0415 6.46433 10.1869C6.88794 10.3323 7.2353 10.5462 7.50641 10.8284C7.77753 11.1107 7.91308 11.4699 7.91308 11.9147C7.91308 12.4792 7.66739 12.9496 7.16752 13.326C6.66766 13.7023 6.0153 13.8905 5.21891 13.8905C4.63432 13.8905 4.16835 13.7964 3.81251 13.6082C3.45668 13.42 3.17709 13.1891 2.98223 12.8983C2.78737 12.6075 2.60098 12.2568 2.43154 11.8291C2.29598 11.4699 2.12654 11.1962 1.9232 11.0166C1.72834 10.837 1.48264 10.7429 1.20306 10.7429C0.855698 10.7429 0.559168 10.8626 0.33889 11.0936C0.110139 11.3331 0 11.6153 0 11.9403C0 12.5048 0.186391 13.095 0.567642 13.6937C0.948893 14.2925 1.44028 14.78 2.04181 15.1392C2.70265 15.5241 3.49904 15.7636 4.43946 15.8492V17.8934H6.14238V15.8492C6.88794 15.7807 7.54877 15.6097 8.13336 15.336C8.92975 14.9682 9.53975 14.4635 9.95489 13.8135C10.37 13.1634 10.5734 12.4364 10.5734 11.6239C10.5649 10.9139 10.4463 10.3409 10.2091 9.879Z" transform="translate(52 32.9765) rotate(-45)" fill="#4B789F"/>
</svg>
