<svg width="23" height="19" viewBox="0 0 23 19" fill="none" xmlns="http://www.w3.org/2000/svg">
<path d="M1.73069 3.71273L7.50132 0L20.6164 8.48625C18.8677 9.54703 15.0031 11.9338 13.5342 12.9946C12.0654 14.0554 12.2227 15.9117 12.485 16.7073L1.73069 9.81223C1.46839 9.72383 0.786401 9.17576 0.156877 7.69066C-0.472647 6.20557 0.943782 4.41992 1.73069 3.71273Z" transform="translate(1 1)" stroke="#37426D" stroke-linecap="round" stroke-linejoin="round"/>
<path d="M1.31151 5.3039L7.08214 1.59116C7.34445 1.32597 7.97397 0.954695 8.39365 1.59116M8.39365 1.59116C8.81333 2.22763 8.04392 3.09394 7.60675 3.44754L2.09841 6.89508C1.66124 7.24867 0.629524 7.79674 0 7.16027M8.39365 1.59116L6.29524 0" transform="translate(13.485 10.547)" stroke="#37426D" stroke-linecap="round" stroke-linejoin="round"/>
<path d="M10.7544 0L14.4266 2.38676M9.18056 1.06078L13.1151 3.71273M11.5413 4.50832L7.60675 2.12156M9.96746 5.8343L1.04921 0M8.91825 7.42547L0 1.85637" transform="translate(2.99298 6.56909)" stroke="#37426D" stroke-linecap="round" stroke-linejoin="round"/>
<path d="M7 2.5L4 5L0 2L3 0L7 2.5Z" transform="translate(5.5 3)" stroke="#37426D" stroke-width="0.8" stroke-linejoin="round"/>
</svg>
