<svg width="145" height="37" viewBox="0 0 145 37" fill="none" xmlns="http://www.w3.org/2000/svg">
<path d="M24.0266 2.75751C22.5252 0.95425 19.8608 0 16.3204 0H5.74085C5.0187 0 4.40281 0.537577 4.28915 1.2673L0.0112351 28.9601C-0.0744076 29.5063 0.340596 29.9996 0.880357 29.9996H6.30968C6.81349 29.9996 7.24594 29.6234 7.32471 29.1112L8.53904 21.2618C8.65112 20.531 9.26752 19.994 9.98914 19.994H13.3366C20.3059 19.994 24.3269 16.5521 25.3774 9.72821C25.8531 6.74508 25.3953 4.39939 24.0266 2.75751ZM17.54 10.1147C16.9627 13.99 14.0635 13.99 11.2569 13.99H9.66084L10.7832 6.75264C10.8498 6.31491 11.2162 5.99323 11.6523 5.99323H12.3845C14.2924 5.99323 16.0962 5.99323 17.0277 7.10509C17.5823 7.76842 17.7525 8.75344 17.54 10.1147Z" transform="translate(75.4516 0.00108337)" fill="#296192"/>
<path d="M23.9515 0.486303H18.8906C18.4556 0.486303 18.086 0.808528 18.0215 1.24625L17.7963 2.69329L17.4411 2.16866C16.3446 0.542977 13.9006 0 11.4598 0C5.86236 0 1.08276 4.32922 0.15073 10.4013C-0.330878 13.4297 0.353203 16.3265 2.03698 18.3467C3.58384 20.2029 5.78941 20.9769 8.41737 20.9769C12.9268 20.9769 15.4274 18.0169 15.4274 18.0169L15.2022 19.4526C15.1176 20.0032 15.5315 20.4954 16.0734 20.4954H20.6347C21.3568 20.4954 21.9733 19.9567 22.0864 19.2259L24.8254 1.52583C24.91 0.981238 24.4965 0.486303 23.9515 0.486303ZM16.8923 10.5535C16.4059 13.5085 14.1063 15.4904 11.1759 15.4904C9.70837 15.4904 8.52946 15.009 7.774 14.0963C7.02648 13.1895 6.74416 11.9006 6.97942 10.4639C7.43882 7.5331 9.77074 5.4848 12.6556 5.4848C14.0941 5.4848 15.263 5.97272 16.0332 6.89405C16.8109 7.82293 17.1159 9.12155 16.8923 10.5535Z" transform="translate(99.437 9.50423)" fill="#296192"/>
<path d="M10.1109 0H5.22294C4.79103 0.00161921 4.41938 0.323304 4.35277 0.76103L0.0108868 28.9612C-0.07317 29.5074 0.340252 30.0007 0.880541 30.0007H5.24567C5.97099 30.0007 6.58688 29.4642 6.69737 28.7334L10.98 1.04007C11.0646 0.494399 10.6502 0 10.1109 0Z" transform="translate(125.009)" fill="#296192"/>
<path d="M24.0312 2.75751C22.5277 0.95425 19.8606 0 16.3201 0H5.74167C5.01846 0 4.40205 0.537577 4.28944 1.2673L0.0110008 28.9601C-0.0735847 29.5063 0.340356 29.9996 0.883289 29.9996H5.93358C6.65678 29.9996 7.27319 29.4631 7.3858 28.7323L8.54039 21.2618C8.65141 20.531 9.26835 19.994 9.99156 19.994H13.3401C20.3078 19.994 24.3299 16.5521 25.3792 9.72821C25.8524 6.74508 25.3993 4.39939 24.0312 2.75751ZM17.5403 10.1147C16.9619 13.99 14.0617 13.99 11.2577 13.99H9.66167L10.7808 6.75264C10.8475 6.31491 11.2191 5.99323 11.6515 5.99323H12.3832C14.2933 5.99323 16.0949 5.99323 17.0264 7.10509C17.582 7.76842 17.7517 8.75344 17.5403 10.1147Z" transform="translate(0 0.00201416)" fill="#00335E"/>
<path d="M23.9598 0.486303H18.8932C18.4618 0.486303 18.0891 0.808528 18.023 1.24625L17.7972 2.69329L17.443 2.16866C16.3471 0.542977 13.9015 0 11.4618 0C5.86382 0 1.08315 4.32922 0.151122 10.4013C-0.332072 13.4297 0.355717 16.3265 2.03844 18.3467C3.58212 20.2029 5.79139 20.9769 8.41883 20.9769C12.9288 20.9769 15.4304 18.0169 15.4304 18.0169L15.2047 19.4526C15.1191 20.0032 15.5341 20.4954 16.0743 20.4954H20.6372C21.362 20.4954 21.9747 19.9567 22.09 19.2259L24.8273 1.52583C24.9135 0.981238 24.4996 0.486303 23.9598 0.486303ZM16.8975 10.5535C16.4085 13.5085 14.112 15.4904 11.1821 15.4904C9.71087 15.4904 8.53566 15.009 7.7802 14.0963C7.03162 13.1895 6.74721 11.9006 6.98563 10.4639C7.44187 7.5331 9.77695 5.4848 12.6618 5.4848C14.1009 5.4848 15.2697 5.97272 16.0405 6.89405C16.8129 7.82293 17.1184 9.12155 16.8975 10.5535Z" transform="translate(23.9815 9.50423)" fill="#00335E"/>
<path d="M23.6003 0H18.5099C18.0251 0 17.5688 0.24666 17.2923 0.658479L10.2718 11.2173L7.29593 1.07192C7.10879 0.43719 6.53519 0.00107888 5.88547 0.00107888H0.883828C0.275341 0.00107888 -0.146 0.607743 0.047489 1.19228L5.65392 17.991L0.382128 25.5873C-0.0333982 26.1848 0.3853 27.0095 1.1011 27.0095H6.18522C6.6663 27.0095 7.12042 26.7688 7.39321 26.365L24.324 1.41519C24.7306 0.817697 24.3135 0 23.6003 0Z" transform="translate(51.3175 9.99052)" fill="#00335E"/>
<path d="M1.40453 3.99754V0.470154H0V0H3.37766V0.470154H1.96791V3.99754H1.40453Z" transform="translate(137 0.00263977)" fill="#296192"/>
<path d="M0 4V0.00246019H0.846375L1.85521 2.83077C1.94955 3.08923 2.01506 3.29354 2.05961 3.41908C2.10678 3.27385 2.18277 3.06215 2.28234 2.77908L3.3069 0H4.06681V3.99754H3.52177V0.649846L2.27972 3.99754H1.77399L0.53979 0.595694V3.99754H0V4Z" transform="translate(140.933)" fill="#296192"/>
</svg>
