<svg width="160" height="98" viewBox="0 0 160 98" fill="none" xmlns="http://www.w3.org/2000/svg">
<path d="M151 0H3C1.34315 0 0 1.34315 0 3V89C0 90.6569 1.34315 92 3 92H151C152.657 92 154 90.6569 154 89V3C154 1.34315 152.657 0 151 0Z" transform="translate(3 3)" stroke="#4B789F" stroke-width="5"/>
<path fill-rule="evenodd" clip-rule="evenodd" d="M1 0H17.625C17.8902 0 18.1446 0.105371 18.3321 0.292908C18.5196 0.480444 18.625 0.734784 18.625 1V74.75C18.625 75.0152 18.5196 75.2696 18.3321 75.4571C18.1446 75.6447 17.8902 75.75 17.625 75.75H1C0.734784 75.75 0.480429 75.6447 0.292892 75.4571C0.105356 75.2696 0 75.0152 0 74.75V1C0 0.734784 0.105356 0.480444 0.292892 0.292908C0.480429 0.105371 0.734784 0 1 0ZM4.625 39.437H14V55.656H4.625V39.437ZM4.625 19.343H14V35.562H4.625V19.343ZM6.20201 24.751H12.424V29.39H6.20201V24.751Z" transform="translate(70.687 10.719)" fill="#4B789F"/>
<path d="M15.313 0H1C0.447715 0 0 0.447715 0 1V15.218C0 15.7703 0.447715 16.218 1 16.218H15.313C15.8653 16.218 16.313 15.7703 16.313 15.218V1C16.313 0.447715 15.8653 0 15.313 0Z" transform="translate(94 30.063)" fill="#4B789F"/>
<path d="M15.344 0H1C0.447715 0 0 0.447715 0 1V15.218C0 15.7703 0.447715 16.218 1 16.218H15.344C15.8963 16.218 16.344 15.7703 16.344 15.218V1C16.344 0.447715 15.8963 0 15.344 0Z" transform="translate(114.219 30.063)" fill="#4B789F"/>
<path d="M14.562 0H1C0.447715 0 0 0.447715 0 1V15.218C0 15.7703 0.447715 16.218 1 16.218H14.562C15.1143 16.218 15.562 15.7703 15.562 15.218V1C15.562 0.447715 15.1143 0 14.562 0Z" transform="translate(134.438 30.063)" fill="#4B789F"/>
<path d="M15.313 0H1C0.447715 0 0 0.447715 0 1V15.219C0 15.7713 0.447715 16.219 1 16.219H15.313C15.8653 16.219 16.313 15.7713 16.313 15.219V1C16.313 0.447715 15.8653 0 15.313 0Z" transform="translate(94 50.156)" fill="#4B789F"/>
<path d="M15.344 0H1C0.447715 0 0 0.447715 0 1V15.219C0 15.7713 0.447715 16.219 1 16.219H15.344C15.8963 16.219 16.344 15.7713 16.344 15.219V1C16.344 0.447715 15.8963 0 15.344 0Z" transform="translate(114.219 50.156)" fill="#4B789F"/>
<path d="M14.562 0H1C0.447715 0 0 0.447715 0 1V15.219C0 15.7713 0.447715 16.219 1 16.219H14.562C15.1143 16.219 15.562 15.7713 15.562 15.219V1C15.562 0.447715 15.1143 0 14.562 0Z" transform="translate(134.438 50.156)" fill="#4B789F"/>
<path d="M15.313 0H1C0.447715 0 0 0.447715 0 1V15.219C0 15.7713 0.447715 16.219 1 16.219H15.313C15.8653 16.219 16.313 15.7713 16.313 15.219V1C16.313 0.447715 15.8653 0 15.313 0Z" transform="translate(94 70.25)" fill="#4B789F"/>
<path d="M15.344 0H1C0.447715 0 0 0.447715 0 1V15.219C0 15.7713 0.447715 16.219 1 16.219H15.344C15.8963 16.219 16.344 15.7713 16.344 15.219V1C16.344 0.447715 15.8963 0 15.344 0Z" transform="translate(114.219 70.25)" fill="#4B789F"/>
<path d="M14.562 0H1C0.447715 0 0 0.447715 0 1V15.219C0 15.7713 0.447715 16.219 1 16.219H14.562C15.1143 16.219 15.562 15.7713 15.562 15.219V1C15.562 0.447715 15.1143 0 14.562 0Z" transform="translate(134.438 70.25)" fill="#4B789F"/>
<path d="M15.313 0H1C0.447715 0 0 0.447715 0 1V15.218C0 15.7703 0.447715 16.218 1 16.218H15.313C15.8653 16.218 16.313 15.7703 16.313 15.218V1C16.313 0.447715 15.8653 0 15.313 0Z" transform="translate(10 30.063)" fill="#4B789F"/>
<path d="M15.344 0H1C0.447715 0 0 0.447715 0 1V15.218C0 15.7703 0.447715 16.218 1 16.218H15.344C15.8963 16.218 16.344 15.7703 16.344 15.218V1C16.344 0.447715 15.8963 0 15.344 0Z" transform="translate(30.219 30.063)" fill="#4B789F"/>
<path d="M14.562 0H1C0.447715 0 0 0.447715 0 1V15.218C0 15.7703 0.447715 16.218 1 16.218H14.562C15.1143 16.218 15.562 15.7703 15.562 15.218V1C15.562 0.447715 15.1143 0 14.562 0Z" transform="translate(50.438 30.063)" fill="#4B789F"/>
<path d="M15.313 0H1C0.447715 0 0 0.447715 0 1V15.219C0 15.7713 0.447715 16.219 1 16.219H15.313C15.8653 16.219 16.313 15.7713 16.313 15.219V1C16.313 0.447715 15.8653 0 15.313 0Z" transform="translate(10 50.156)" fill="#4B789F"/>
<path d="M15.344 0H1C0.447715 0 0 0.447715 0 1V15.219C0 15.7713 0.447715 16.219 1 16.219H15.344C15.8963 16.219 16.344 15.7713 16.344 15.219V1C16.344 0.447715 15.8963 0 15.344 0Z" transform="translate(30.219 50.156)" fill="#4B789F"/>
<path d="M14.562 0H1C0.447715 0 0 0.447715 0 1V15.219C0 15.7713 0.447715 16.219 1 16.219H14.562C15.1143 16.219 15.562 15.7713 15.562 15.219V1C15.562 0.447715 15.1143 0 14.562 0Z" transform="translate(50.438 50.156)" fill="#4B789F"/>
<path d="M15.313 0H1C0.447715 0 0 0.447715 0 1V15.219C0 15.7713 0.447715 16.219 1 16.219H15.313C15.8653 16.219 16.313 15.7713 16.313 15.219V1C16.313 0.447715 15.8653 0 15.313 0Z" transform="translate(10 70.25)" fill="#4B789F"/>
<path d="M15.344 0H1C0.447715 0 0 0.447715 0 1V15.219C0 15.7713 0.447715 16.219 1 16.219H15.344C15.8963 16.219 16.344 15.7713 16.344 15.219V1C16.344 0.447715 15.8963 0 15.344 0Z" transform="translate(30.219 70.25)" fill="#4B789F"/>
<path d="M14.562 0H1C0.447715 0 0 0.447715 0 1V15.219C0 15.7713 0.447715 16.219 1 16.219H14.562C15.1143 16.219 15.562 15.7713 15.562 15.219V1C15.562 0.447715 15.1143 0 14.562 0Z" transform="translate(50.438 70.25)" fill="#4B789F"/>
<path fill-rule="evenodd" clip-rule="evenodd" d="M1 0H55C55.2652 0 55.5196 0.105341 55.7071 0.292877C55.8946 0.480414 56 0.734784 56 1V12.125C56 12.3902 55.8946 12.6446 55.7071 12.8321C55.5196 13.0196 55.2652 13.125 55 13.125H1C0.734784 13.125 0.480429 13.0196 0.292892 12.8321C0.105356 12.6446 0 12.3902 0 12.125V1C0 0.734784 0.105356 0.480414 0.292892 0.292877C0.480429 0.105341 0.734784 0 1 0ZM10.069 5.375H48.243C48.858 5.375 49.4479 5.6193 49.8828 6.0542C50.3177 6.4891 50.562 7.07896 50.562 7.694V7.71201C50.562 8.32704 50.3177 8.91688 49.8828 9.35178C49.4479 9.78667 48.858 10.031 48.243 10.031H10.069C9.45396 10.031 8.86411 9.78667 8.42921 9.35178C7.99432 8.91688 7.75 8.32704 7.75 7.71201V7.694C7.75 7.07896 7.99432 6.4891 8.42921 6.0542C8.86411 5.6193 9.45396 5.375 10.069 5.375V5.375Z" transform="translate(94 11.531)" fill="#4B789F"/>
<path fill-rule="evenodd" clip-rule="evenodd" d="M1 0H55C55.2652 0 55.5196 0.105341 55.7071 0.292877C55.8946 0.480414 56 0.734784 56 1V12.125C56 12.3902 55.8946 12.6446 55.7071 12.8321C55.5196 13.0196 55.2652 13.125 55 13.125H1C0.734784 13.125 0.480429 13.0196 0.292892 12.8321C0.105356 12.6446 0 12.3902 0 12.125V1C0 0.734784 0.105356 0.480414 0.292892 0.292877C0.480429 0.105341 0.734784 0 1 0ZM8.53799 5.375H46.681C47.296 5.375 47.8859 5.6193 48.3208 6.0542C48.7557 6.4891 49 7.07896 49 7.694V7.71201C49 8.32704 48.7557 8.91688 48.3208 9.35178C47.8859 9.78667 47.296 10.031 46.681 10.031H8.53799C7.92296 10.031 7.33312 9.78667 6.89822 9.35178C6.46333 8.91688 6.21899 8.32704 6.21899 7.71201V7.694C6.21899 7.07896 6.46333 6.4891 6.89822 6.0542C7.33312 5.6193 7.92296 5.375 8.53799 5.375Z" transform="translate(10 11.531)" fill="#4B789F"/>
</svg>
