<svg width="117" height="114" viewBox="0 0 117 114" fill="none" xmlns="http://www.w3.org/2000/svg">
<circle cx="9" cy="9" r="9" transform="translate(7.47833)" fill="#4B789F"/>
<path d="M6.97831 7.5C6.97831 1.5 13.3116 0 16.4783 0C24.0783 0 24.4783 7 24.4783 11L28.9783 13C32.5783 15 40.4783 15.8333 43.9783 16C45.645 16.5 49.1783 18.2 49.9783 21C50.9783 24.5 48.9783 28.5 42.4783 28.5C37.2783 28.5 29.3117 25.8333 25.9783 24.5V39.5C27.8117 41.1667 32.3783 45.5 35.9783 49.5C39.5783 53.5 45.4783 66.8333 47.9783 73C49.4783 78.3333 50.9783 89.2 44.9783 90C38.9783 90.8 37.4783 84 37.4783 80.5C37.3117 79.6667 36.4783 76.1 34.4783 68.5C32.4783 60.9 26.9783 56 24.4783 54.5V58L20.9783 67L11.4783 88C9.97833 89.6667 6.07831 92.4 2.47831 90C-1.12169 87.6 -0.0216882 82.6667 0.978312 80.5C3.47831 75.1667 8.97831 63.2 10.9783 58C12.9783 52.8 11.145 47.8333 9.97831 46C8.37831 44.4 7.31165 40.3333 6.97831 38.5V7.5Z" transform="translate(0 21)" fill="#4B789F"/>
<path d="M27 65L0 14L3 12.5L29 62.5H34L70.5 44L72 47.5L38 64L27 65Z" transform="translate(44.9783 33)" fill="#4B789F"/>
<path d="M35 7.5L10.5 20L20.5 38.5L44.5 26L35 7.5Z" transform="translate(44.9783 33)" fill="#4B789F"/>
<path d="M46 29L22 41.5L31.5 59.5L55.5 47.5L46 29Z" transform="translate(44.9783 33)" fill="#4B789F"/>
<path d="M49.5 0L38 5.5L58 46L69 40.5L49.5 0Z" transform="translate(44.9783 33)" fill="#4B789F"/>
<circle cx="3.5" cy="3.5" r="6.5" transform="translate(73.4783 101)" stroke="#4B789F" stroke-width="6"/>
</svg>
