<svg xmlns="http://www.w3.org/2000/svg" viewBox="0 0 409.81 512"><defs><style>.cls-1{fill:#4b789f;}</style></defs><title>Ресурс 13</title><g id="Слой_2" data-name="Слой 2"><g id="Capa_1" data-name="Capa 1"><path class="cls-1" d="M409.7,442.58,380.39,112.45a14.11,14.11,0,0,0-14-12.88H306a101.16,101.16,0,0,0-202.29,0H43.45a14,14,0,0,0-14,12.88L.1,442.58c0,.42-.1.84-.1,1.26C0,481.43,34.45,512,76.85,512H333c42.4,0,76.85-30.57,76.85-68.16A5.1,5.1,0,0,0,409.7,442.58ZM204.9,28.27a73,73,0,0,1,72.87,71.3H132A73,73,0,0,1,204.9,28.27ZM333,483.73H76.85c-26.59,0-48.16-17.59-48.58-39.26L56.33,127.95h47.33v42.93a14.13,14.13,0,1,0,28.27,0V127.95H277.78v42.93a14.13,14.13,0,1,0,28.27,0V127.95h47.33l28.17,316.52C381.12,466.14,359.45,483.73,333,483.73Z"/></g></g></svg>