<?xml version="1.0" encoding="utf-8"?>
<!-- Generator: Adobe Illustrator 21.0.2, SVG Export Plug-In . SVG Version: 6.00 Build 0)  -->
<svg version="1.1" id="Слой_1" xmlns="http://www.w3.org/2000/svg" xmlns:xlink="http://www.w3.org/1999/xlink" x="0px" y="0px"
	 viewBox="0 0 252.1 477.2" style="enable-background:new 0 0 252.1 477.2;" xml:space="preserve">
<style type="text/css">
	.st0{fill:#999999;}
</style>
<title>Ресурс 11</title>
<g id="Слой_2">
	<g id="Capa_1">
		<path class="st0" d="M248.2,229.1L23.1,4C18.1-1.5,9.5-2,4,3s-6,13.5-1,19.1c0.3,0.3,0.6,0.7,1,1l215.5,215.5L4,454.1
			c-5.3,5.2-5.3,13.8-0.1,19c0,0,0,0,0.1,0.1c2.5,2.5,5.9,4,9.5,4c3.6,0,7-1.4,9.5-4l225.1-225.1
			C253.4,242.9,253.4,234.4,248.2,229.1C248.2,229.1,248.2,229.1,248.2,229.1z"/>
	</g>
</g>
</svg>
