<svg width="167" height="215" viewBox="0 0 167 215" fill="none" xmlns="http://www.w3.org/2000/svg">
<rect width="167" height="166" rx="22" transform="translate(0 24)" fill="#0789CD"/>
<path d="M51.8661 100.602L57.0193 98.884C60.0583 97.8269 63.3617 99.5447 64.4187 102.584L73.5359 130.464C74.593 133.503 72.8752 136.806 69.8362 137.863L64.683 139.581L51.8661 100.602ZM29.6678 74.043C37.86 99.1483 43.5417 102.187 47.1093 102.187L59.6619 141.299C51.0733 144.073 36.4066 132.578 31.1212 126.5C21.872 115.665 13.019 98.6197 7.33734 81.0461C0.862826 60.9619 -0.987034 44.5774 0.466427 30.9677C1.65562 20.265 7.6016 6.25888 15.1332 3.48409L28.0822 43.2561C23.8539 45.3702 22.1362 51.0519 29.6678 74.043ZM19.7578 2.03063L24.911 0.312899C27.9501 -0.744164 31.2534 0.973565 32.3104 4.01262L41.6919 32.6854C42.7489 35.7245 41.0312 39.0278 37.9922 40.0849L32.839 41.8026L19.7578 2.03063Z" transform="translate(68.6491 27.0739) rotate(17.8907)" fill="white"/>
</svg>
