<svg width="116" height="137" viewBox="0 0 116 137" fill="none" xmlns="http://www.w3.org/2000/svg">
<path d="M31.5489 17.0549C39.5489 2.25492 52.5489 -0.445079 58.0489 0.0549211C70.8489 0.0549211 77.3822 6.38826 79.0489 9.55493C81.0489 9.88826 85.4489 12.2549 87.0489 19.0549C88.6489 25.8549 87.0489 34.5549 86.0489 38.0549C88.4489 37.6549 89.0489 40.8883 89.0489 42.5549C88.5489 45.2216 87.2489 51.1549 86.0489 53.5549C84.8489 55.9549 81.8822 57.2216 80.5489 57.5549C80.2155 65.2216 75.2489 80.6549 58.0489 81.0549C40.8489 81.4549 33.8822 65.5549 32.5489 57.5549C30.9489 57.5549 29.2155 54.8883 28.5489 53.5549C27.8822 51.5549 26.4489 46.5549 26.0489 42.5549C25.6489 38.5549 28.2156 37.2216 29.5489 37.0549C29.5489 35.8883 29.3489 32.5549 28.5489 28.5549C27.7489 24.5549 30.2155 19.2216 31.5489 17.0549Z" fill="#4B789F"/>
<path d="M16.5489 87.5549C21.7489 86.3549 32.0489 80.3883 36.5489 77.5549L49.0488 116.555L54.0488 102.555C52.3822 100.888 49.0488 96.5549 49.0488 92.5549C49.0488 87.5549 53.5488 86.0549 58.0489 86.0549C62.5489 86.0549 65.5488 88.5549 65.5488 92.5549C65.5488 95.7549 62.2155 100.555 60.5488 102.555L65.5488 116.555L78.5488 77.5549C82.5488 80.2216 92.3488 85.9549 99.5488 87.5549C108.549 89.5549 111.549 94.0549 113.549 96.5549C115.149 98.5549 115.549 106.722 115.549 110.555V122.555C107.715 127.222 84.9488 136.555 56.5488 136.555C28.1488 136.555 7.04885 127.222 0.0488566 122.555V110.555C-0.11781 107.555 0.0488567 100.555 2.04886 96.5549C4.54886 91.5549 10.0489 89.0549 16.5489 87.5549Z" fill="#4B789F"/>
</svg>
