<svg width="167" height="166" viewBox="0 0 167 166" fill="none" xmlns="http://www.w3.org/2000/svg">
<rect width="167" height="166" rx="22" fill="#7B519C"/>
<path fill-rule="evenodd" clip-rule="evenodd" d="M83.2694 32.9801C87.5987 33.9028 90.9169 35.5483 93.7522 38.2035C97.4005 41.6493 99.4001 45.8196 100.279 51.8111C100.873 55.7173 100.63 57.2534 99.2455 58.5271C97.9495 59.7122 95.5537 59.7556 94.1031 58.6366C93.0486 57.846 92.7185 57.0119 92.477 54.7512C92.1921 51.7433 91.6639 49.6373 90.7623 47.6841C88.8287 43.5364 85.4219 41.3851 79.6645 40.6831C76.9613 40.353 76.1482 40.0471 75.2691 39.015C73.6639 37.1053 74.2806 34.0105 76.4991 32.8689C77.3348 32.4518 77.6857 32.4084 79.5325 32.5179C80.6773 32.5839 82.3695 32.782 83.2694 32.9801ZM78.5891 16.408C91.9298 18.3612 102.258 24.5507 109.028 34.6031C112.831 40.2661 115.204 46.9161 116.017 54.0492C116.302 56.6609 116.302 61.4238 115.995 62.2144C115.708 62.9599 114.786 63.9695 113.995 64.3865C113.139 64.8261 111.314 64.7809 110.303 64.2544C108.611 63.3978 108.106 62.0372 108.106 58.3499C108.106 52.666 106.632 46.6728 104.084 42.0194C101.183 36.7074 96.9627 32.318 91.8203 29.2667C87.4024 26.6324 80.8754 24.6793 74.92 24.1962C72.7657 24.0207 71.5792 23.5811 70.7661 22.6375C69.5135 21.2109 69.3815 19.2786 70.436 17.6765C71.5774 15.9041 73.3355 15.6174 78.5891 16.408ZM26.8318 2.86647C27.6014 3.13059 28.788 3.74399 29.469 4.18361C33.6437 6.94996 45.2696 21.8087 49.0726 29.2267C51.2477 33.4632 51.9738 36.6014 51.2928 38.9281C50.5892 41.4303 49.4252 42.7475 44.2151 46.9387C42.1269 48.6277 40.1707 50.3619 39.8632 50.8241C39.0727 51.9657 38.4352 54.2038 38.4352 55.7851C38.4577 59.4498 40.8309 66.1016 43.9511 71.2155C46.3676 75.1878 50.6969 80.2791 54.9828 84.1871C60.0158 88.7971 64.4545 91.9353 69.4666 94.415C75.9067 97.6192 79.84 98.4307 82.7186 97.0927C83.4431 96.7625 84.2127 96.3246 84.4542 96.1265C84.6731 95.9285 86.367 93.8659 88.212 91.5826C91.7717 87.1046 92.5847 86.38 95.0256 85.546C98.1249 84.4929 101.289 84.7779 104.476 86.4026C106.895 87.6537 112.169 90.924 115.574 93.2942C120.058 96.4324 129.639 104.247 130.937 105.805C133.222 108.615 133.618 112.214 132.08 116.188C130.454 120.379 124.125 128.237 119.707 131.596C115.708 134.624 112.873 135.787 109.136 135.962C106.059 136.115 104.784 135.853 100.851 134.228C69.9965 121.521 45.36 102.558 25.7999 76.5032C15.5811 62.8956 7.7998 48.7823 2.48196 34.1426C-0.61736 25.6055 -0.770242 21.8956 1.77836 17.5271C2.87806 15.6834 7.55832 11.1186 10.9651 8.57294C16.6357 4.35912 19.2503 2.80044 21.3385 2.36081C22.7665 2.05325 25.2509 2.29478 26.8318 2.86647ZM77.0725 0.496305C84.6331 1.43985 90.7414 3.26092 97.4456 6.53293C104.039 9.75976 108.259 12.8111 113.84 18.3629C119.071 23.6089 121.973 27.5812 125.049 33.7481C129.335 42.3513 131.774 52.5808 132.191 63.8391C132.346 67.6794 132.235 68.536 131.356 69.6342C129.686 71.7629 126.015 71.4118 124.763 69.0191C124.367 68.2284 124.257 67.549 124.125 64.4751C123.905 59.7556 123.576 56.7061 122.916 53.0622C120.322 38.7734 113.465 27.3605 102.52 19.1727C93.3995 12.3245 83.9712 8.98824 71.6208 8.26364C67.4444 8.0221 66.72 7.86919 65.7749 7.14458C64.0167 5.76141 63.9281 2.51372 65.6202 0.998487C66.6539 0.0549389 67.3784 -0.0771227 70.9607 0.0323497C72.8317 0.100118 75.5784 0.320801 77.0725 0.496305Z" transform="translate(17 15)" fill="white"/>
</svg>
