<svg width="167" height="166" viewBox="0 0 167 166" fill="none" xmlns="http://www.w3.org/2000/svg">
<rect width="167" height="166" rx="22" fill="#00DA20"/>
<path fill-rule="evenodd" clip-rule="evenodd" d="M63.3985 110.947C53.1429 110.947 42.8872 108.15 34.4962 102.556L14.9173 109.083L21.4436 90.4361C15.8496 82.0451 12.1203 71.7895 12.1203 60.6015C12.1203 58.7368 12.1203 56.8722 12.1203 55.9399C14.9173 29.8346 36.3609 9.32331 63.3985 9.32331C90.4361 9.32331 111.88 29.8346 114.677 56.8722C114.677 57.8045 114.677 58.7368 114.677 60.6015C114.677 88.5714 91.3684 110.947 63.3985 110.947ZM124 58.7368C123.068 26.1053 96.0301 0 63.3985 0C30.7669 0 3.72932 25.1729 1.86466 57.8045C1.86466 58.7368 1.86466 59.6692 1.86466 60.6015C1.86466 71.7895 5.59399 82.9774 11.188 91.3684L0 124L33.5639 113.744C41.9549 118.406 52.2105 121.203 63.3985 121.203C96.9624 121.203 124 94.1654 124 60.6015C124 59.6692 124 59.6692 124 58.7368Z" transform="translate(22 21)" fill="#FEFEFE"/>
<path fill-rule="evenodd" clip-rule="evenodd" d="M57.8045 40.0902C55.9399 39.1579 48.4812 35.4286 47.5489 35.4286C45.6842 34.4962 44.7519 34.4962 43.8195 36.3609C42.8872 37.2932 40.0902 41.0226 39.1579 41.9549C38.2256 42.8872 37.2932 42.8872 36.3609 41.9549C34.4962 41.0226 29.8346 40.0902 24.2406 34.4962C19.5789 30.7669 16.782 26.1053 15.8496 24.2406C14.9173 23.3083 15.8496 22.3759 15.8496 21.4436C16.782 20.5113 17.7143 19.5789 18.6466 18.6466C18.6466 18.6466 18.6466 18.6466 18.6466 17.7143C19.5789 17.7143 19.5789 16.782 19.5789 16.782C20.5113 14.9173 20.5113 14.9173 19.5789 13.985C19.5789 13.0526 16.782 5.59399 14.9173 2.79699C13.985 0 13.0526 0 12.1203 0C11.188 0 10.2556 0 9.32331 0C8.39098 0 6.52632 0.932331 4.66165 1.86466C3.72932 3.72932 0 7.45865 0 13.985C0 15.8496 0 17.7143 0.932331 19.5789C1.86466 24.2406 5.59399 28.9023 5.59399 29.8346C6.52632 30.7669 15.8496 46.6165 31.6992 52.2105C46.6165 57.8045 46.6165 55.9399 49.4135 55.9399C52.2105 55.9399 58.7368 52.2105 59.6692 48.4812C60.6015 45.6842 60.6015 41.9549 60.6015 41.9549C59.6692 41.0226 58.7368 41.0226 57.8045 40.0902Z" transform="translate(55.5639 53.6316)" fill="#FEFEFE"/>
</svg>
