<svg xmlns="http://www.w3.org/2000/svg" viewBox="0 0 370.9 238.5"><defs><style>.cls-1{fill:#fff;}</style></defs><title>Ресурс 13</title><g id="Слой_2" data-name="Слой 2"><g id="Capa_1" data-name="Capa 1"><path class="cls-1" d="M355.6,0H15.3A15.22,15.22,0,0,0,0,15.2v208a15.3,15.3,0,0,0,15.3,15.3H355.6a15.3,15.3,0,0,0,15.3-15.3V15.2A15.28,15.28,0,0,0,355.6,0ZM15.3,12H355.6a3.21,3.21,0,0,1,3.1,2.3L185.4,122.5,12.2,14.3A3.12,3.12,0,0,1,15.3,12ZM12,28l124.6,77.8L12,204.7ZM358.9,223.2a3.33,3.33,0,0,1-3.3,3.3H15.3a3.33,3.33,0,0,1-3.3-3.3V220L147.4,113l34.8,21.8a6.14,6.14,0,0,0,6.4,0L223.4,113,358.8,220v3.2Zm0-18.5-125-98.6,125-77.4Z"/></g></g></svg>